<svg version="1" xmlns="http://www.w3.org/2000/svg" viewBox="0 0 360 144"><path fill-rule="evenodd" clip-rule="evenodd" fill="#39d7c2" d="M25.72 44.84c-.02.27.22.18.2.45-.1.07-.14.27-.04.39.14.21.19.55.28.83.03.11.1.16.13.3.01.05-.01.11.01.15.03.11.12.25.14.38.08.5.01 1.01.12 1.45.04.15.05.26.08.38.01.07-.01.17.01.23.01.02.12.05.12.07.03.11-.02.26.01.38.01.02.06 0 .06.07 0 .04.05.16.07.23.07.24.13.65.28.91.11-.03.02.25.07.3.1.1-.02.36.08.45.1.1-.02.36.08.46.11.1.13 1 .23 1.3.02.04.04.1.07.15.04.08.02.31.08.38.23.26.24.87.36 1.36.04.18.08.34.14.53.01.03.06 0 .06.08.02.21.02.24.08.46.01.03.06 0 .06.07.01.08.1.25.14.38.02.06-.02.27.01.31.07.08.17.19.14.45-.02.16-.03.16.02.46.02.14.05.33.08.46.05.22.15.42.21.6.05.15.18.33.08.53.16.13.14.39.21.6.01.03.06 0 .06.07v.08c0 .01.25.54.15.68-.05.08 0 .07.01.24.02.39.02.62.1.99.02.11.03.2.07.3.02.04.11.12.13.15.02.04 0 .11.01.15.02.06.05.13.07.23.03.11.06.34.09.69 0 0 .07.01.06.07 0 .02-.06.01-.06.08.02.2.1.2.14.45.04.24.02.46.09.76.05.18.13.34.2.53.04.09.09.12.13.23.01.04 0 .11.01.15.01.06.06.06.06.07.1.45.04.94.12 1.38.01.06.05.13.07.23.01.05-.01.1.01.15.02.1.15.32.2.53.03.12-.06.13-.05.23.01.09.12.1.13.15.06.24.05.44.09.76.03.2.1.21.14.45.04.28.07.48.15.76.03.12.03.29.13.38 0 .23-.06.72.1.92.1.12.05.4.15.61.02.04.12.12.12.15.04.13-.13.32.07.3-.11.41.04.65.17 1.07.01.04.04.11.06.15.08.14-.01.1.01.23.01.07.06.05.06.07.05.25.06.53.09.77 0 0 .12.15.07.23-.03.04-.04.06.01.31.01.05.04.21.07.3.03.09.09.12.13.23.06.18.02.44.2.53.01.18-.09.23-.04.46.1.11.08.3.14.45.02.05.11.11.13.15.03.09-.03.23.07.23-.01.19-.01.41.03.61.01.04.04.23.07.31.02.04.11.11.12.15.07.19 0 .46.2.45-.1.27-.01.51.03.76.01.09.04.16.08.38 0 .02.08.07.06.15-.01.03-.07 0-.06.08.02.1.12.12.13.22.01.13.12.18.02.38.15-.09.08.17.13.22 0 0 .06-.01.06 0 .06.25-.01.47-.03.61-.02.11.01.09-.05.16-.09.1-.16.28-.34.4-.02.01 0 .06-.06.08-.13.05-.19.02-.29.17-.04.05-.07.1-.11.16-.09.12-.05.17-.22.24-.01 0-.21.19-.29.09-.08-.1-.2-.01-.36-.06-.04-.01-.08.01-.12 0-.13-.04-.46-.23-.55-.36-.04-.06-.03-.14-.07-.22-.03-.06-.09-.06-.12-.15-.01-.03.01-.14-.01-.16-.06-.06-.07-.28-.14-.53-.04-.15-.1-.26-.13-.38-.01-.05 0-.11-.01-.15-.02-.07-.04-.13-.07-.23-.02-.08-.09-.16-.13-.3-.01-.03.01-.14-.01-.15-.06-.05-.18-.54-.21-.76-.02-.18-.02-.3-.08-.54 0-.01-.05-.02-.06-.08-.02-.1-.02-.15-.07-.23a.967.967 0 0 1-.13-.3c-.08-.32-.04-.73-.16-.99-.02-.04-.11-.11-.13-.15-.01-.04.01-.11 0-.15-.02-.07-.05-.13-.07-.22-.01-.06-.06-.06-.06-.08-.05-.23-.03-.53-.09-.76-.07-.26-.18-.49-.27-.75-.06-.18-.13-.39-.21-.6-.01-.03.01-.14-.01-.16-.13-.12-.14-.71-.23-1.06-.05-.21-.13-.33-.2-.53-.01-.03.01-.14-.01-.15-.12-.12-.1-.61-.16-.92-.06-.31-.21-.62-.28-.91-.06-.26-.12-.5-.15-.76-.1-.67-.29-1.6-.51-2.2-.12-.02-.19.02-.17.16-.08 0-.16 0-.24.01-.22.07-.48.03-.71.11-.01 0-.01.07-.06.08-.02 0-.17-.01-.18.01-.18.32-1.54.19-2 .32-.06.01-.14.06-.23.08-.04.01-.08-.01-.12.01-.06.02-.29.1-.53.02-.11-.04-.29 0-.59.03-.18.02-.41.01-.59.02-.1.01-.12.08-.23.09-.23.02-.21-.08-.47.02-.15.05-.19.11-.41.17-.08.02-.17-.02-.18.08-.18.02-.26-.18-.42-.13 0 0-.01.07-.06.08-.04.01-.23.18-.29.09-.06-.09-.14-.05-.29.01-.13.03-.15.23-.22.39-.01.02-.05.08-.06.08-.07.22-.06.47-.09.69-.05.44-.06.94-.12 1.39 0 .02-.06.01-.05.08 0 .05-.04.14-.05.23-.01.12.03.26.02.38-.02.18-.13.36-.15.54-.03.24-.01.52-.02.77-.01.08-.04.17-.05.31 0 .12.04.27.02.38 0 .02-.05.01-.05.08 0 .22-.21.58-.26.86-.04.27-.03.55-.02.92h-.06c-.03.16.12.34-.16.39.02.19-.08.24-.1.39 0 .4.06.7.04 1-.03.6-.33 1.02-.28 1.7-.11 0-.06.16-.11.24-.04.06-.13.09-.17.16-.08.14-.11.34-.22.47-.04.05-.13.05-.17.08-.09.06-.2.27-.34.32-.26-.01-.47.04-.71.03-.2-.02-.41-.11-.6-.13-.32-.03-.63.1-.95-.03-.06-.25-.05-.46-.03-.69.01-.15 0-.26.04-.38.01-.04.05 0 .05-.08 0-.05.05-.09.05-.15.04-.21.04-.48.09-.69.04-.19.11-.37.15-.54.05-.21.09-.42.15-.62.11-.36.21-.73.3-1.16.03-.11.04-.33.1-.46.08-.19.12-.65.2-.93.01-.03-.02-.14-.01-.15.08-.09 0-.13.04-.38 0-.02.06-.01.06-.09 0-.09-.03-.22-.01-.3.01-.03.06 0 .06-.08 0-.05.04-.1.05-.16.04-.22.05-.42.09-.62.08-.41.18-.83.24-1.24.02-.14.01-.23.04-.38.02-.09.03-.17.05-.31.03-.31.02-.61.08-.92 0-.01.05-.03.05-.08.03-.16 0-.17.04-.39.01-.03.06 0 .06-.08 0-.09.01-.22.04-.31.02-.04.1-.12.11-.16.02-.05-.01-.32.04-.38.01-.01.06 0 .06 0 .05-.26.03-.59.08-.92.02-.15.01-.31.04-.46.01-.02.06-.01.06-.08 0-.03-.03-.21-.01-.23.09-.11.2-1.07.24-1.31.03-.14.02-.26.04-.39s.08-.24.1-.39c.02-.13.01-.31.04-.46.11-.65.28-1.28.45-1.94.01-.03-.02-.14-.01-.16.01 0 .06.01.06 0 .01-.03-.02-.13-.01-.15.11-.12.01-.66.14-.85.04-.06.03-.13.05-.23.01-.07.02-.19.04-.31.01-.07.04-.13.05-.23.01-.07.05-.05.06-.08.03-.11.01-.2.05-.31.02-.04.1-.13.11-.16.02-.06-.05-.26-.01-.31.11-.15.15-.48.2-.77.11-.57.2-1.09.34-1.63.02-.08.01-.2.05-.31.01-.04.1-.12.11-.16.12-.51.15-1.07.28-1.62.01-.05.03-.11.05-.16.03-.08.03-.12.05-.23.01-.08.13-.3.16-.46.01-.05-.02-.11-.01-.15.01-.04.11-.05.12-.09.02-.08-.05-.3.1-.31-.02-.24.04-.48.09-.69 0-.03-.02-.14-.01-.15.04-.05.11-.2.16-.39.01-.03-.02-.13-.01-.15.01-.01.06.01.06 0 .01-.03-.02-.13-.01-.15.07-.07.04-.16.05-.31 0-.12.04-.13.05-.23.02-.21.03-.47.09-.62.06-.13.15-.54.27-.7-.06-.41.05-.8.13-1.16.07-.32.16-.64.26-.93.01-.04.06 0 .06-.08 0-.04.04-.11.05-.16.03-.1.09-.17.11-.31.01-.05-.02-.11-.01-.16.02-.05.1-.11.11-.16.03-.11.01-.2.04-.31.02-.05.1-.12.11-.16.06-.18.07-.43.15-.62.03-.08.03-.12.05-.23.01-.07.05-.04.06-.08.05-.18.05-.37.1-.54.01-.03.06 0 .06-.08 0-.16.04-.23.1-.39.01-.04.1-.12.11-.16.01-.04-.01-.11-.01-.15.01-.09.07-.17.11-.23.04-.07.03-.13.05-.24.01-.07.03-.13.05-.23.05-.34.29-.76.49-1.1.13.04.15-.08.23-.09.16-.02.3.05.48.06.1 0 .1-.08.17-.09.04 0 .11.06.18.07.18.02.34 0 .54.05.04.01.15.22.18.07.14.09.4.01.53.13zm1.46 19.5c-.08-.48-.04-.97-.12-1.45 0-.01-.05-.03-.06-.08-.03-.1-.05-.16-.07-.23-.03-.11-.05-.23-.07-.31-.03-.1-.03-.15-.07-.23-.08-.14-.15-.17-.19-.3-.03-.09-.06-.25-.07-.3-.11-.48-.04-1.04-.13-1.53 0-.01-.05-.03-.06-.08-.01-.05 0-.11-.01-.16-.05-.18-.18-.43-.2-.52-.03-.11-.03-.16-.07-.23-.08-.13-.03-.21-.08-.38 0-.02-.05-.01-.06-.07-.08-.36-.08-.66-.11-1.07-.01-.14-.07-.17-.07-.31 0 .02.05-.05.06-.08.02-.14-.06-.23-.08-.3-.05-.21-.05-.39-.08-.53-.01-.06-.06-.05-.06-.07-.09-.25-.1-.52-.15-.76-.04-.18-.11-.36-.14-.53-.12-.56-.19-1.05-.3-1.52 0-.01-.05-.02-.06-.07-.14-.57-.1-1.51-.21-1.99-.09-.42-.2-.65-.28-.99-.06 0-.08-.06-.12-.07 0-.05-.01-.09-.06-.08-.11.23-.18.39-.27.63-.03.08-.02.16-.05.23-.01.02-.04.04-.06.08-.11.23-.03.6-.08.92 0-.02-.05.08-.06.08-.07.16-.06.33-.1.46-.05.16-.16.33-.16.47 0 .08-.05.05-.06.08-.02.09.01.22.01.31 0 .06-.05.07-.06.08-.02.19 0 .3-.04.46-.05.22-.09.3-.16.39-.02.02-.04.21-.05.23-.06.12-.08.36-.09.54-.01.14-.04.26.02.38-.2.13-.16.53-.32.7.06.6-.07 1.17-.16 1.69-.04.19-.06.34-.1.39-.01 0-.05.23-.05.23-.03.22-.04.22-.04.38 0 .08-.05.05-.06.08-.06.23-.04.4-.1.47 0 0-.05.32-.05.31-.02.13 0 .32-.04.46-.01.02-.11.05-.12.08-.04.12.02.15-.05.23-.02.02.01.12.01.15-.08.33-.12.7-.19 1-.07.28-.15.5-.2.78-.05.27-.07.59-.09.69-.02.12-.03.23-.04.31-.02.13-.02.22-.04.31-.01.02 0 .06 0 .08 0 .08-.05.05-.06.08-.05.2-.07.4-.1.47-.03.05-.03.1-.05.16-.07.19-.11.25-.05.31.04.04-.06.1-.06.08 0 .1.03.21.01.31-.03.19-.08.31-.1.47-.01.07.01.16.01.23 0 .32-.15.45-.09.77.8.02 1.52-.1 2.24-.18.39-.04.93-.09 1.24-.05.21.02.11.04.24-.01.4-.15.63.01 1.01.03.67.04 1.3-.02 1.77-.23.16-.64-.14-1.26-.24-1.88zM220.6 43.19c-.02.28.22.18.2.47-.1.08-.15.29-.04.4.14.22.19.57.29.86.03.11.1.17.13.31.01.05-.01.11.01.16.04.12.12.26.14.39.08.51.01 1.05.12 1.5.04.15.05.27.08.39.01.07-.02.18.01.24.01.02.12.05.13.08.03.12-.02.27.01.39.01.02.06 0 .07.07 0 .04.05.16.07.24.07.25.14.68.29.94.11-.03.02.26.08.31.11.1-.02.37.08.47.11.1-.02.37.08.47.11.11.13 1.03.24 1.34.02.04.04.11.07.16.05.08.02.32.08.39.23.27.25.9.37 1.41.04.19.09.35.15.55.01.03.06 0 .07.08.02.22.02.25.08.47.01.03.06 0 .06.08.01.08.1.25.14.39.02.06-.02.27.01.32.08.09.18.2.14.47-.02.17-.03.16.02.48.02.14.05.35.08.48.05.23.16.44.21.63.05.16.18.34.08.55.17.14.14.4.21.63.01.03.06 0 .07.07v.08c0 .01.26.56.15.7-.05.08 0 .08.01.25.03.4.03.64.11 1.03.02.11.03.21.07.31.02.05.12.12.13.16.02.04 0 .11.01.16.02.06.05.13.07.24.03.12.06.36.09.71 0 .01.07.01.06.08 0 .02-.06.01-.06.08.02.21.11.21.14.47.04.25.01.47.1.79.05.19.13.36.21.55.04.1.1.13.13.23.01.04 0 .11.01.16.01.06.06.06.06.07.11.46.04.97.12 1.43.01.06.05.14.07.24.01.05-.01.11.01.16.02.11.15.33.21.55.03.13-.06.14-.05.24.01.09.12.11.13.15.07.25.05.45.1.79.03.21.11.22.14.47.04.29.08.5.16.78.03.12.04.3.14.39 0 .24-.06.74.1.95.1.12.05.42.15.63.02.04.12.13.13.15.04.13-.13.33.07.32-.12.42.05.68.17 1.1.01.04.05.11.07.16.08.14-.01.1.01.24.01.07.06.05.06.07.05.26.06.55.1.79 0 0 .12.16.07.23-.03.04-.04.06.01.32.01.05.04.22.08.31.04.1.1.13.14.23.06.18.03.46.21.55.01.19-.09.24-.04.48.11.11.08.31.14.47.02.04.12.11.13.15.03.09-.03.24.07.24-.02.19-.01.42.03.63.01.04.04.23.07.32.02.05.12.12.13.15.08.2.01.47.21.47-.1.28-.01.53.03.79.02.1.05.16.08.39 0 .02.09.07.07.16-.01.03-.08 0-.06.08.02.1.12.12.13.23.01.14.12.19.02.4.16-.1.08.18.13.23 0 0 .06-.01.06 0 .07.26 0 .49-.03.64-.03.12.01.1-.06.16-.09.1-.16.29-.35.41-.02.01 0 .06-.06.08-.13.05-.19.02-.3.17-.04.05-.07.11-.12.16-.09.12-.05.18-.23.25-.01 0-.22.2-.3.09-.08-.1-.2-.01-.37-.06-.04-.02-.08.01-.12 0-.14-.04-.48-.24-.57-.38-.04-.06-.03-.15-.07-.23-.04-.07-.09-.06-.13-.15-.01-.03.01-.14 0-.16-.07-.06-.07-.29-.15-.55-.04-.15-.11-.27-.14-.39-.01-.05.01-.12-.01-.16-.02-.07-.05-.13-.07-.24-.02-.08-.09-.17-.14-.31-.01-.03.01-.14-.01-.16-.06-.05-.19-.56-.22-.78-.03-.19-.02-.31-.09-.55 0-.01-.05-.03-.07-.08-.02-.1-.03-.16-.07-.23-.03-.05-.1-.18-.14-.31-.09-.33-.04-.75-.17-1.02-.02-.04-.12-.12-.13-.15-.02-.04 0-.11-.01-.16-.02-.07-.05-.13-.07-.23-.01-.06-.06-.06-.06-.08-.06-.23-.03-.55-.1-.79-.07-.26-.19-.51-.28-.78-.06-.19-.14-.41-.21-.63-.01-.03.01-.14 0-.16-.13-.13-.14-.74-.23-1.1-.05-.22-.13-.34-.21-.55-.01-.03.01-.14-.01-.16-.12-.12-.1-.63-.17-.95-.06-.32-.21-.64-.28-.94-.06-.27-.12-.52-.16-.79-.1-.69-.29-1.65-.53-2.28-.12-.02-.19.03-.18.17-.08 0-.17 0-.25.01-.23.07-.5.03-.73.11-.01 0 0 .07-.06.08-.02 0-.17-.01-.18.01-.19.33-1.6.2-2.07.33-.06.01-.14.06-.24.09-.04.01-.08-.01-.12.01-.07.02-.3.11-.55.02-.11-.04-.3 0-.61.03-.19.02-.42.01-.61.03-.11.01-.13.08-.24.09-.24.02-.22-.08-.49.02-.16.05-.19.12-.42.18-.08.02-.18-.03-.18.09-.19.02-.26-.18-.43-.14 0 0-.01.08-.06.08-.04.01-.24.19-.3.1-.07-.1-.15-.06-.31.01-.13.03-.15.24-.23.41-.01.03-.05.08-.06.08-.07.23-.06.48-.09.72-.06.45-.06.97-.12 1.44 0 .02-.06.01-.06.08 0 .06-.04.14-.05.24-.01.13.03.27.02.4-.02.18-.13.37-.16.56-.03.25-.01.54-.03.8 0 .08-.04.18-.05.32 0 .12.04.28.02.4 0 .02-.06.01-.06.08 0 .23-.22.6-.27.89-.04.28-.03.57-.02.95h-.06c-.03.16.13.35-.17.4.02.2-.08.25-.11.4 0 .42.06.73.04 1.03-.03.62-.35 1.06-.29 1.76-.11 0-.07.16-.11.25-.04.07-.14.1-.18.17-.08.15-.11.36-.22.49-.04.05-.14.05-.18.09-.09.06-.2.28-.35.33-.27-.01-.49.05-.74.03-.21-.02-.42-.12-.62-.13-.33-.03-.65.1-.98-.04-.06-.26-.05-.47-.03-.72.01-.16 0-.27.04-.4.01-.04.06 0 .06-.09 0-.05.04-.1.05-.16.04-.22.04-.5.09-.72.04-.19.12-.38.16-.56.05-.22.09-.44.16-.64.11-.37.22-.75.31-1.21.02-.11.04-.34.1-.48.08-.19.13-.67.2-.96.01-.03-.02-.14-.01-.16.08-.1 0-.14.04-.4 0-.02.06-.02.06-.09 0-.09-.03-.23-.01-.31.01-.03.06-.01.06-.08 0-.05.04-.1.05-.16.04-.23.05-.43.09-.64.09-.42.19-.86.25-1.28.02-.15.01-.23.04-.39.02-.1.03-.18.05-.32.03-.32.02-.63.08-.96 0-.01.05-.03.06-.08.03-.17 0-.18.04-.4.01-.03.06 0 .06-.08 0-.1.01-.23.04-.32.02-.04.1-.12.12-.17.02-.05-.01-.33.04-.4.01-.01.06 0 .06 0 .05-.27.04-.61.08-.96.02-.15.01-.32.04-.48 0-.03.06-.01.06-.08 0-.03-.03-.22-.01-.24.09-.11.2-1.11.25-1.36.03-.15.03-.27.04-.4.02-.14.08-.25.11-.4.02-.14.01-.32.04-.48.11-.68.29-1.32.46-2.01.01-.03-.02-.14-.01-.16.01 0 .06.01.06 0 .01-.03-.02-.14-.01-.16.11-.13.01-.68.15-.88.04-.07.03-.13.05-.24.01-.07.02-.2.05-.32.01-.07.04-.13.05-.24.01-.08.05-.05.06-.08.03-.12.01-.21.05-.32.01-.05.1-.13.11-.17.02-.06-.05-.27-.01-.32.11-.15.15-.5.21-.8.12-.59.2-1.12.36-1.68.02-.08.01-.21.05-.32.01-.05.11-.13.11-.17.13-.52.16-1.11.29-1.68.01-.05.03-.11.05-.16.03-.08.03-.13.05-.24.01-.08.13-.31.16-.48.01-.05-.02-.12-.01-.16.01-.04.11-.05.12-.09.02-.09-.05-.31.11-.32-.02-.24.04-.5.09-.72 0-.03-.03-.14-.01-.16.04-.05.11-.2.17-.4.01-.03-.02-.14-.01-.16.01-.01.06.01.06 0 .01-.03-.02-.14-.01-.16.07-.08.04-.16.05-.32.01-.12.04-.13.05-.24.02-.22.03-.49.09-.64.07-.14.15-.56.28-.73-.06-.43.05-.83.13-1.2.07-.33.17-.66.26-.97.01-.04.06 0 .06-.08 0-.04.04-.12.05-.16.03-.11.09-.18.11-.32.01-.05-.02-.11-.01-.16.02-.05.1-.12.12-.16.04-.11.01-.2.05-.32.02-.05.1-.12.12-.17.06-.19.07-.45.15-.64.04-.08.03-.13.05-.24.01-.08.05-.05.06-.08.05-.19.05-.39.1-.56.01-.04.06 0 .06-.08 0-.16.05-.23.11-.4.02-.05.1-.13.11-.17.01-.04-.01-.11-.01-.16.02-.1.07-.18.11-.24.04-.07.04-.13.05-.24.01-.07.03-.14.05-.24.05-.36.29-.79.5-1.14.13.04.16-.08.24-.09.17-.02.31.05.49.06.1 0 .1-.09.18-.09.04 0 .11.06.19.07.19.02.35 0 .56.05.04.01.16.23.18.07.26.12.54.03.67.15zm1.51 20.21c-.09-.5-.04-1.01-.13-1.5 0-.01-.05-.03-.06-.08-.03-.11-.05-.16-.07-.24-.03-.12-.06-.24-.07-.32-.03-.11-.03-.16-.07-.24-.08-.15-.15-.18-.2-.31-.04-.09-.06-.26-.08-.31-.12-.5-.04-1.07-.13-1.58 0-.01-.05-.03-.07-.08-.01-.05 0-.11-.01-.16-.05-.19-.19-.45-.21-.54-.03-.11-.03-.16-.07-.24-.08-.13-.03-.22-.08-.39-.01-.02-.05-.01-.07-.07-.09-.38-.08-.69-.11-1.11-.01-.15-.07-.17-.08-.32 0 .03.05-.05.06-.08.03-.14-.06-.24-.08-.31-.05-.22-.05-.4-.08-.55-.02-.06-.06-.05-.06-.07-.09-.26-.1-.54-.16-.79-.04-.19-.11-.37-.15-.55-.12-.58-.2-1.08-.32-1.58 0-.01-.05-.02-.06-.07-.14-.6-.11-1.57-.21-2.06-.1-.43-.2-.67-.29-1.02-.06 0-.08-.06-.13-.07 0-.05-.01-.09-.06-.08-.12.24-.19.4-.28.65-.03.09-.02.17-.05.24-.01.02-.04.04-.06.08-.11.24-.03.63-.08.95 0-.02-.05.08-.06.09-.07.16-.06.34-.1.48-.05.17-.17.34-.16.48 0 .08-.05.06-.06.08-.02.09.01.22.01.32 0 .06-.06.07-.06.08-.02.19 0 .31-.04.48-.05.23-.09.32-.17.41-.02.02-.04.21-.05.24-.06.12-.08.37-.1.56-.01.15-.04.27.02.4-.2.13-.17.55-.33.73.06.62-.07 1.21-.17 1.75-.04.2-.06.35-.11.4-.01 0-.05.24-.05.24-.03.22-.04.23-.04.4 0 .09-.05.05-.06.09-.06.24-.04.42-.1.48 0 0-.05.33-.05.32-.03.14-.01.33-.04.48-.01.02-.11.05-.12.09-.04.12.02.16-.05.24-.02.02.01.13.01.16-.08.34-.13.72-.2 1.04-.07.29-.16.52-.21.8-.05.28-.07.62-.09.72-.02.13-.03.24-.05.32-.02.14-.02.23-.05.32v.08c0 .08-.05.05-.06.08-.05.21-.07.41-.1.48-.02.05-.03.11-.05.16-.07.2-.11.26-.05.32.04.04-.06.1-.06.08 0 .1.03.22.01.32-.03.2-.08.32-.1.48-.01.07.01.16.01.24 0 .33-.16.47-.09.8.83.02 1.57-.11 2.32-.18.41-.04.97-.09 1.29-.05.21.03.11.04.25-.01.41-.15.65.01 1.04.03.69.04 1.35-.02 1.83-.24.18-.71-.13-1.35-.24-1.99z"/><g fill-rule="evenodd" clip-rule="evenodd" fill="#39d7c2"><path d="M254.86 102.02c-1.07-.76-.88-1.97-1.02-3.32-.05-.42-.19-.88-.2-1.25-.01-.4.18-.8.19-1.19.01-.18-.09-.45-.11-.68-.02-.38-.02-.7-.07-1.27-.01-.11.03-.49.05-.47-.21-.11-.2-.84-.2-1.25 0-.4.09-.8.07-1.17-.07-1.13-.33-2.28-.41-3.42-.08-1.04-.17-2.06-.23-3.1-.02-.28.02-.54 0-.81-.12-1.21-.28-2.74-.25-4.03.01-.47.14-.94.15-1.41.02-.74-.21-1.46-.21-2.17 0-.29.1-.57.12-.83.03-.28.02-.56 0-.81-.05-.62-.33-1.17-.41-1.79-.05-.43.01-.92.03-1.4.03-.54.14-1.11.12-1.64-.02-.48 0-.98 0-1.62 0-1.69-.53-4.16-.71-6.16-.05-.6 0-1.24-.04-1.85-.02-.25-.16-.49-.13-.8.01-.05.1-.16.11-.13-.05-.32-.25-.58-.26-.89-.03-.56.11-1.15.1-1.76-.01-.48-.07-.88-.11-1.49-.01-.07-.04-.15-.04-.23.01-.12.08-.78.09-1.06.01-.34-.04-.6-.02-.93 0-.02.12-.04.11-.13-.04-.4.02-.94.01-1.51-.01-1.41-.06-2.83-.02-4.18 0-.07-.04-.15-.03-.22.01-.07.11-.14.11-.14-.02-.9-.29-1.88-.32-2.85-.02-.57.07-1.12.1-1.76 0-.11-.06-.23-.05-.34.01-.1.09-.13.09-.25 0-.86-.22-1.73-.28-2.62 0 .01.11-.06.1-.13-.02-.23-.15-.48-.12-.79.01-.16.03-.5-.02-.93-.01-.08-.14-.51-.09-.57.01-.01.12-.01.12-.02-.03-.63-.08-1.19-.04-1.85.01-.11-.07-.23-.05-.34.01-.05.11-.16.11-.13-.03-.35-.33-.55-.28-1 .01-.1.14-.21.07-.36-.02-.03-.14-.15-.14-.09 0-.17.14-.29.17-.49.03-.17.02-.44.04-.59.04-.26.1-.57.12-.83.01-.11-.07-.23-.05-.34 0-.04.12-.02.1-.13 0-.04-.08-.31-.05-.34.01-.01.12-.01.12-.02.01-.04-.06-.2-.04-.23.01-.01.12 0 .12-.02.01-.05-.07-.19-.04-.23.08-.08.12-.31.16-.6 0-.03.11-.03.11-.14-.02-.15-.06-.3-.07-.45.14-.1.34-.08.47-.19.09-.08.1-.31.19-.38.08-.06.28-.01.37-.06.44-.21 1.45-.48 1.9.05.11.04.4-.14.49-.07.01 0 .01.11.02.11.49-.03.93-.12 1.37-.1.42.02.75.11 1.16.17.11.02.26-.09.37-.06.06.01.11.2.16.21.17.04.45-.02.63.02.15.03.36.12.53.15.18.04.32-.02.51.04.07.02 0 .11.14.09.04 0 .22.06.26.07.09.04.2.16.28.19.09.04.17.04.26.08.06.02.11.08.14.09.11.04.35.17.53.15.05-.01.19.06.26.07.09.02.27.01.39.05.05.02.12.2.16.21.18.04.29.05.53.15.08.03 0 .11.14.09.04 0 .22.06.26.08.09.04.2.15.28.19.09.04.17.04.26.07.06.02.11.08.14.1.09.04.27 0 .38.05.12.05.19.24.3.3.11.06.26 0 .39.05.05.02.12.2.16.21.21.05.39-.05.53.15.3-.06.47.49.83.45.02 0 .1-.03.12-.02.3.11.66.18.93.32.12.06.18.23.3.3.04.03.21-.07.25-.04.02.02-.01.09.02.11.23.19.74.55 1.12.75.21.11.71.34.97.55.04.03-.01.2.03.23.21.11.23.18.44.4.05.06.11-.03.14.09 0 .03 0 .1.02.11.1.1.32.17.42.28.03.03.15.41.19.44.02.01.11-.03.12-.02.03.04-.01.21.03.23.13.07.17.08.28.19.1.1.33.18.42.28.03.03-.01.21.04.23.02.01.11-.03.12-.02.03.04-.01.2.03.23.02.01.11-.04.13-.02.03.04-.01.2.04.23.27.14.28.18.47.62.04.1.12.18.18.32.06.13.21.19.3.3.05.07.23.13.28.19.03.04-.01.21.04.23.12.07.22.17.3.3.02.03 0 .21.04.23.11.06.1.08.16.2.06.13.34.49.49.74.02.04 0 .2.04.23.14.08.27.51.49.74.11.1.22.16.3.3.08.18.1.35.21.55.1.18.23.32.33.52s.12.42.23.66c.08.17.26.35.34.53.03.07-.01.62.11.68.33.18.37.81.58 1.31 0 0 .11.03.14.09.03.07 0 .42.07.45.18.1.08.35.12.79.06.63.3 1.27.42 1.91.13.69.11 1.36.2 2.06 0-.04.13.04.14.09.04.19.1.48.12.79 0-.01-.11.06-.11.13.01.13.2.6-.02.7.56.8.44 1.87.72 3.02.03.11.15.24.2.43.03.15.05.3.07.45.12.98-.2 1.96.44 2.83-.38 1.29.45 2.67.22 3.8-.04.21-.02.64-.1.95-.06.24-.04.81-.05 1.28 0 .02-.11.04-.1.14.02.18.15.48.13.79 0 .03-.12.03-.11.14 0 .03.03.08.02.11-.04.15.02.25-.04.58 0 .04-.12.02-.1.13 0 .03.02.09.02.12-.03.12-.05.19-.07.36-.01.13-.03.66-.09 1.06 0 .03-.11.02-.1.13.01.08-.08.15-.09.25-.01.15.09.3.07.45 0 .03-.12.03-.1.13.02.18.11.39.09.57-.03.25-.22.99-.28 1.44-.01.08.04.15.03.22-.01.09-.1.11-.11.14-.03.27.06.56 0 .81-.01.03-.1.04-.1.13-.03.23-.08.24-.17.5-.08.2-.1.4-.16.6-.03.1-.19.11-.21.26-.01.11.07.23.05.34-.16.85-.81 2.03-.64 3.12-.14.21-.28.38-.4.64-.08.16-.22.57-.37.87-.02.04-.04.32-.07.36-.1.11-.13.14-.21.27-.02.04-.22.11-.23.15-.02.06.06.17.04.23-.12.27-.22.6-.37.87-.04.07-.12 0-.1.13.01.17-.22.36-.42.53-.17.23-.41.41-.67.57.03.33-.13.61-.24.85-.03.07-.12 0-.11.13.01.12-.22.39-.3.51.08.26-.34.18-.32.4-.11.43-.2.76-.32 1.21-.01.04.07.2.04.23-.07.07-.22.18-.31.39-.02.06-.21.11-.23.15-.03.1.09.24.05.34-.02.06-.12.01-.11.13.01.15-.21.21-.19.38.01.09-.07.21-.07.36 0 0 .18.1.16.21 0 .02-.19.05-.1.13-.76.46-1.18 1.14-1.74 1.78-.09.11-.24.17-.33.29-.19.22-.26.63-.65.68-.16.4-.35.78-.86.95-.1.32-.25.6-.49.89-.06.07.04.1-.1.13-.24.05-.16.41-.41.64-.17.17-.42.13-.58.32-.08.21-.13.44-.28.62-.09.1-.25.07-.35.17-.06.06-.04.19-.09.25-.09.09-.27.08-.35.17-.14.17-.4.64-.61.91-.03.04-.21.11-.23.15-.08.18.02.32-.05.47-.03.07-.12 0-.1.13.02.23-.36.23-.28.62-.26.2-.67.3-.93.5-.08.28-.17.56-.39.76-.57-.04-.71.44-1.05.51-.08.02-.12.12-.23.15.01 0-.17-.12-.26-.08-.01.01.01.18-.1.13-.29.04-.37.28-.56.44-.18.15-.14.18-.46.31-.11.04-.2.11-.35.17-.12.05-.05.1-.11.13-.28.17-.5.43-.77.7-.53.13-1.09.33-1.53.71-.19.17-.84.42-1.02.74-.38.02-.66-.03-1.23.2-.1.04-.1.12-.23.15-.2.04-.23-.09-.39-.06-.15.06-.52.33-1.08.31zm.65-69.76c.12.63.24 1.21.29 1.81.01.12-.04.21-.07.36-.07.44.03.49.12.79.13.39.02.67 0 .81-.04.49.06.79.05 1.15 0 .01-.11.01-.12.02-.08.09.1.62.11.68.01.21-.03.48-.01.7.01.18-.12.32-.05.47.18.4.2.85.18 1.13-.04.48.14.84.3 1.11-.35.54-.16 1-.14 1.53 0 .07.04.15.04.23-.04.32.02.11.07.45.02.15-.11.17-.07.36.03.15.17.13.18.32 0-.03-.1.1-.11.13-.01.03.02.08.02.11.01.1-.1.11-.1.13-.04.4.13.54-.02.7-.03.03.05.3.05.34.01.11-.1.1-.1.13-.06.51.04.58.12.8.06.16 0 .28-.07.36-.03.03.05.29.05.34.01.09-.1.13-.1.13 0 .4.12.56-.02.7-.11.11.19.42.19.43 0 .12-.08.15-.09.25-.01.11.06.23.05.34-.03.64-.11 1.18-.1 1.76 0 .24.09.47.1.68.06.64-.1 1.17-.1 1.75 0 .11-.09.09-.1.14-.03.12.15.18.16.21.12.49.05.71.04 1.04-.07 1.23.26 2.89.25 4.03 0 .62-.01 1.2.01 1.62.02.48.16.89.2 1.25.03.34-.04.44-.03.58.04.68.15 1.4.19 2.06 0 .01-.12.01-.12.02-.09.11.18.33.17.32.01.12-.08.15-.08.25-.01.11.05.23.05.34.02.48-.03 1.12-.05 1.28-.05.3.1.58.12.79.01.09-.11.12-.11.13 0 .48-.02 1.11-.05 1.28-.05.3.1.58.12.79.01.07-.1.14-.1.13.05.67.12 1.33.14 1.72.06.95.23 1.93.3 2.74.01.09-.1.13-.1.13 0 .73.21 1.9.13 2.42-.02.1.05.23.05.34.02.49.03.71.05 1.15.01.17-.04.41-.03.59.04.8.22 1.86.12 2.42-.02.11.05.23.05.34 0 .22-.04.42-.03.59.01.12.13.06.14.1.05.1-.09.16-.09.24.11 1.02.37 2.46.25 3.21-.05.3.1.58.12.79.01.08-.1.14-.11.13.03.81.29 1.64.25 2.4-.02.48-.26.97-.28 1.43-.02.5.11.98.11 1.49-.01.45-.14.95-.16 1.42-.01.5.08.89.06 1.15-.05.64.05 1.28.06 1.96a7.54 7.54 0 0 0 1.65-.72c.14-.09.11-.17.21-.26.05-.04.19 0 .25-.04.04-.02.04-.21.08-.25.14-.11.33-.08.48-.19.03-.02.06-.21.09-.24.03-.04.21 0 .24-.04.19-.18.31-.5.41-.64.03-.04.21 0 .25-.04.16-.19.38-.45.52-.67.04-.04-.05-.17-.04-.23.01-.03.2-.11.23-.15.1-.15.22-.26.31-.4.03-.05-.05-.17-.04-.22.01-.03.2-.12.23-.15.26-.4.64-.74.7-1.16.35-.01.37-.34.54-.55.35-.42.69-.81.95-1.2.32-.48.61-.83.95-1.19.23-.25.97-1.3 1.17-1.35.14-.03.04-.07.11-.13.33-.31.33-.43.51-.78.08-.16.24-.27.31-.4.09-.16.08-.31.18-.49.08-.14.24-.26.31-.4.08-.15.11-.33.18-.49.06-.15.1-.16.21-.26.03-.04-.06-.18-.04-.23.01-.02.11 0 .12-.02.03-.03-.05-.18-.03-.23 0-.01.11 0 .12-.02.03-.03-.05-.18-.04-.23.01-.02.11 0 .12-.02.03-.04-.06-.18-.04-.23.05-.1.16-.14.21-.27.06-.15.1-.15.21-.27.03-.04-.05-.18-.04-.23.01-.02.11 0 .12-.02.04-.03-.05-.18-.03-.23.01-.02.11-.01.12-.02.04-.04-.06-.18-.04-.23.06-.12.26-.27.32-.4.1-.19.09-.34.17-.49.08-.14.23-.26.32-.4.15-.23.63-.76.61-.91-.02-.23.25-.28.32-.4.1-.19.02-.45.14-.72.02-.06.16-.19.21-.27.08-.13.14-.24.19-.38.05-.13.01-.22.07-.36.03-.07.18-.19.21-.27.05-.13.04-.26.07-.36.02-.07.09-.19.09-.25-.01-.12.09-.07.11-.13.07-.22.08-.47.14-.72.07-.31.21-.81.23-.97.02-.15.05-.25.07-.36.03-.18.04-.36.05-.47.02-.16.04-.24.07-.36.01-.03-.02-.08-.02-.11-.01-.12.09-.08.1-.13.08-.37.15-.83.21-1.08.04-.16.01-.26.05-.47.06-.28.18-.35.16-.61-.01-.12.09-.09.1-.13.07-.33-.04-.44.03-.58.04-.07.08-.18.09-.25.08-.47.1-1.01.18-1.31 0-.03-.02-.08-.02-.11-.01-.11.1-.1.11-.13.05-.34 0-.44.04-.59 0-.03-.02-.08-.02-.11-.01-.11.1-.1.1-.13.05-.34 0-.43.03-.59.01-.03-.01-.08-.02-.11-.01-.11.1-.1.1-.13.12-.92.05-1.76.1-2.57 0-.01.09-.05.1-.13.01-.07-.04-.15-.04-.23.02-.76.01-1.44.03-2.21 0-.01.1-.06.11-.13.02-.18-.07-.39-.09-.57-.01-.09.11-.12.11-.13.01-.96-.11-2.4-.11-3.12 0-.19-.09-.38-.09-.56 0-.3.12-.55.12-.83.01-.57-.05-1.08.03-1.4.01-.03-.01-.08-.02-.12-.01-.09.1-.11.11-.13.01-.28-.02-.61-.02-.92 0-1.92-.57-3.79-1.15-5.74-.26-.88-.61-1.96-.92-2.64-.14-.31-.25-.49-.33-.53-.04-.02-.04-.3-.05-.34-.02-.08-.14-.08-.14-.09-.15-.43-.16-.63-.25-.77-.02-.03-.01-.08-.02-.11-.03-.12-.11-.05-.14-.1-.2-.32-.27-.52-.35-.64-.02-.02-.01-.08-.02-.11-.03-.12-.11-.05-.14-.09-.22-.36-.32-.85-.53-.96-.04-.02-.04-.3-.05-.34-.02-.1-.13-.07-.14-.09-.18-.38-.24-.75-.42-1.09-.04-.08-.14-.14-.16-.21-.03-.12-.11-.05-.14-.1-.11-.17-.09-.37-.21-.54-.04-.06-.15-.15-.16-.21-.05-.21-.28-.25-.32-.42-.03-.12-.1-.04-.14-.09-.25-.34-.44-.73-.63-.83-.04-.02-.01-.19-.04-.23-.01-.01-.11.03-.12.02-.04-.03 0-.19-.03-.23-.01-.02-.11.03-.13.02-.04-.02-.01-.19-.03-.23-.01-.01-.11.03-.12.02-.04-.02 0-.19-.04-.23-.04-.05-.21-.12-.28-.19-.11-.1-.19-.2-.3-.3-.32-.29-.76-.6-1-.77-.12-.08-.19-.19-.3-.3-.18-.19-.25-.45-.46-.51-.23-.06-.4-.22-.67-.24.05-.29-.27-.24-.44-.4-.1-.08-.09-.24-.18-.32-.24-.21-.52-.15-.79-.23-.01 0-.1-.07-.14-.09-.1-.04-.18-.02-.26-.07-.22-.22-.76-.04-1.04-.19-.04-.14-.18-.14-.28-.19-.09-.05-.18-.15-.28-.19-.13-.05-.23-.01-.39-.05-.07-.03-.19-.16-.28-.19-.36-.11-.89-.09-1.16-.17-.12-.03-.2-.17-.28-.19-.47-.1-1-.15-1.54-.22-.24-.03-.4-.14-.53-.15-.45-.03-.97.08-1.25.08-.13.19-.24.32-.28.49zM299.86 28.33c.4.27.06.6.14.91.06.23.45.85.58 1.3.1.36.09.73.18 1.13.16.72.37 1.71.55 2.7.05.29.06.6.14.91.1.39.27.82.36 1.45 0-.02-.12.06-.11.13.02.09.16.24.2.43.02.13.02.95.16 1.02.01 0 .12-.03.12-.02.05.15-.09.21-.09.25-.02-.08.45.69.26.88-.13.14.01.06.04.23.05.34.21.73.18 1.13-.01.22-.08.34.13.79.06.13.13.2.21.55.02.07.01.16.03.23.03.06.14.11.14.09.04.17-.08.35-.03.59.04.2.15.22.19.43 0-.04-.19.09-.11.13.38.2.11.92.22 1.36 0-.01.12.02.14.1.03.14.15.43.11.68-.04.23 0 .12.09.57.08.41.1.82.2 1.24 0 .03.19.08.16.21-.01.05-.13.01-.1.13.02.11.16.23.19.44.05.3 0 .68.04 1.04 0-.04.13.04.14.09.05.23.1.55-.14.72.34.45.21.94.37 1.57.06.22.17.3.2.44 0-.01-.19.28-.07.36.12.08.15.18.21.55 0-.01-.19.28-.07.36.06.04.17.08.16.21-.01.09-.24.35-.16.6.01.01.12.01.14.09.02.09.14.09.16.21-.01-.03-.11.08-.1.13.02.21.02.91.19 1.25.02.04.15.12.14.09.06.25-.07.31-.05.47.05.36.1.66.16 1.02 0-.02.13.03.14.09.06.29-.03.51 0 .81.01.1.18.23.2.43 0-.01-.11.06-.11.13.19 1.94.79 3.61.99 5.53.02.18.09.38.09.57-.01.11-.1.19-.07.36.02.08.17.1.16.21 0 .03-.14.02-.11.13 0-.02.12.05.14.09.02.06.18.32.18.32-.19.19-.01.21.09.56.05.18.02.39.09.57.04.1.14.16.18.32.04.18-.09.21-.07.36.02.15.35.46.37.76 0-.04-.1.1-.1.13-.03.26.2.69.28 1 .08.3.17.59.26.89.08.25.2.54.25.77.03.12-.04.48-.05.47.12.06.17.19.21.55 0-.01-.19.27-.07.36.22.15.01.09.07.45 0 .02.19.09.16.21-.01.05-.13.01-.1.13.02.11.15.24.19.44.09.48.19.98.34 1.34.04.09.04.24.05.34.02.23-.07.33-.05.47.01.09-.13.14-.09.25.04.08.25.03.28.19.07.33.16.97.23 1.47 0-.03-.19.09-.11.13.09.05.26.23.21.54 0 .03-.09.19-.1.13.04.16.26.27.32.41.07.18.05.49.11.68.03.09.14.09.16.21.02.13-.17.25-.03.58.04.09.14.1.16.21.03.19-.06.39-.03.58.03.21.2.35.21.55 0-.01-.11.06-.11.13.02.24.15.62 0 .81-.01.01.2.64.25.77.3.8.38 2.55.79 3.47.11.24-.08.29-.03.59.1.65.2 1.28.3 1.93.02.12.12.05.14.09.01.04-.08.29-.04.59 0-.01.15 0 .14.09 0 .01-.11.05-.1.13.01.14.04.31.07.45.1.39.34.71.42 1.1.05.23-.05.39-.03.58 0 0 .15.12.16.21 0 .1-.11.13-.08.25.06.39.26.83.32 1.23.1.75.05 1.54.11 2.3.03.3.29.46.12.79-.08.16-.1.78.18 1.14.05.44-.42.54-.61.91-.14.35-.19.75-.47 1-.51.06-.67-.33-.97-.54-.33-.13-.6-.32-.84-.57-.22-.56-.41-1.16-.65-1.76-.01-.02-.12 0-.14-.09-.1-.46-.23-1.15-.39-1.68-.11-.38-.33-.73-.42-1.09-.29-1.16-.32-2.39-.69-3.61 0-.01-.13 0-.14-.09.02.12.21-.7 0-.81-.17-.09-.14-.37-.25-.77-.06-.23-.19-.41-.23-.66-.1-.56-.05-1.18-.14-1.72-.07-.42-.22-.78-.32-1.23-.14-.63-.17-1.3-.3-1.92-.19-.92-.47-1.62-.55-2.7-.02-.25.04-.55 0-.81-.11-.65-.4-1.23-.55-1.89-.23-1.03-.28-2.11-.5-3.17-.16-.78-.49-1.58-.62-2.34-.12-.73.03-1.49-.34-2.15-.43-.19-.82.14-1.23.19-.44.06-.89.02-1.37.1-.43.07-.89.21-1.34.32.04-.01-.06.12-.1.14-.26.1-.34-.07-.51-.04.02 0-.04.12-.11.13-.16.03-.33.05-.49.07-.14.03-.09-.09-.14-.09-.03 0-.26.24-.35.17-.19-.15-.31.03-.74.12-.38.07-.8.04-1.23.19-.1.04-.11.13-.23.15-.41.07-.96-.01-1.62.14-.51.12-1.02.43-1.56.48-.37.03-.54-.02-.9-.1-.04-.01-.04-.09-.14-.09-.28-.02-.25 0-.63-.02-.21-.01-.2.16-.35.17.01 0-.06-.1-.14-.09-.21.02-.36.05-.65-.13-.06.27-.25.49-.25.85 0 .11.07.23.05.34-.02.24-.16.38-.15.61 0 .2.23.3.07.45.15.29-.2.24-.17.49 0 .04.04.51-.04.58-.15.16-.05.79-.07 1.17 0-.02-.2.09-.11.13.17.09-.03.22-.03.59-.01.28.11.48.12.79-.12.02-.06.16-.09.25-.04.17-.14.17-.18.49-.02.18.12.38.09.57-.01.1-.2.21-.21.26-.04.31.07.59.02.93 0 .04-.12.02-.1.13 0 .03.02.08.02.11-.03.12-.05.19-.07.36-.01.08-.11.13-.11.13-.01.14.12.05.14.09.02.04-.07.32-.05.47.05.41.14.81.05 1.15-.01.04.07.2.04.23-.19.19-.13.66-.21 1.08-.01.04-.12.01-.11.13.02.16-.1.66-.12.83-.02.23-.01.3-.05.47-.01.04.06.2.04.23-.01.01-.12 0-.12.02-.02.04.07.19.03.22-.17.17-.21.79-.45 1.12.08.56.21.99.11 1.49-.01.05-.12.02-.11.13.02.15-.1.37-.16.6-.14.65-.15 1.4-.28 2.25-.06.39-.15.72-.21 1.08-.01.07.04.15.04.23 0 0-.06.35-.07.36-.11.11-.07.17-.07.36 0 .04.06.21.04.23-.16.17-.16.51-.24.85-.01.04.07.2.04.23-.08.08-.11.31-.16.6-.01.04.06.2.04.23-.01.01-.12 0-.12.02-.02.04.07.19.03.23-.06.06-.12.33-.15.6-.06.51-.04.57-.35.98-.05.07-.12 0-.11.14.01.14-.15.07-.23.15-.1.1-.2.28-.31.4-.04.04-.22 0-.25.04-.09.14.06.15-.09.25-.15.11-.2.19-.46.31.02-.01-.18-.12-.26-.08-.05.03-.05.23-.09.25-.09.05-.26.03-.37.06-.31.08-.29.24-.56.44-.36 0-.57-.19-.92-.21-.09-.29-.64 0-.79-.22-.21.07-.27-.07-.14-.09.12-.18.18-.4.28-.62.05-.11.16-.17.21-.27.02-.05-.07-.19-.04-.23.09-.09.07-.34.14-.72.04-.24.13-.42.16-.6.04-.28-.04-.56 0-.81 0-.01.1-.06.11-.13.02-.23.02-.31.05-.47.03-.19.12-.38.16-.6.04-.2-.01-.49.02-.7.11-.91.23-1.8.33-2.72.05-.46.14-.96.16-1.42.01-.52-.14-.98-.11-1.49 0-.02.11-.04.11-.13-.01-.03-.03-.09-.02-.12.04-.14.02-.27.05-.47.01-.08.1-.12.11-.13.04-.31-.06-.61-.02-.93 0-.03.12-.03.11-.13-.03-.32-.03-.34.02-.7 0-.03.12-.03.11-.13-.04-.44.05-1.03.14-1.53.04-.22.13-.37.16-.6.04-.31.02-.63.08-1.06.01-.04.12-.03.11-.13-.01-.08.08-.15.09-.25.01-.15-.09-.31-.07-.46.01-.03.11-.03.11-.13-.03-.27-.06-.45 0-.82.01-.04.12-.02.11-.13 0-.03-.02-.08-.02-.11.03-.12.05-.19.07-.36.01-.11.09-.08.11-.13.12-.51.28-1.03.38-1.57.05-.26.08-.55.12-.83.04-.25.1-.58.12-.83.09-.85.03-1.66.24-2.48.01-.04.09-.04.1-.13.03-.24-.04-.27.03-.58.02-.08.2-.21.21-.27.02-.07-.04-.16-.04-.23.01-.1.05-.21.07-.36.01-.1.05-.21.07-.36.04-.32.05-1.13.12-1.64.05-.38.11-.74.21-1.08.02-.06.12-.01.1-.13-.03-.3.2-.24.17-.49 0-.03-.03-.09-.02-.11.02-.07.1-.11.1-.13.07-.33.04-.69.09-1.06.03-.2 0-.4.03-.59.01-.03.12-.02.11-.13 0-.03-.02-.08-.02-.11.02-.06.11-.12.11-.13.06-.33.02-.73.09-1.06.01-.04.12-.02.1-.13-.05-.46.25-1.21.35-1.8.04-.24.14-.59.12-.83-.03-.31.13-.79.19-1.19.05-.34.02-.73.08-1.06.01-.04.12-.02.11-.13-.02-.22.03-.53.12-.83.02-.06.12-.01.1-.13-.01-.16.2-.28.17-.49-.01-.12.24-.75.35-.98.01-.03.11-.14.1-.13.09-.32.02-.7.09-1.06.01-.04.12-.02.11-.13-.01-.14-.09-.32-.07-.45.01-.04.12-.02.11-.13-.01-.07.07-.16.09-.25.05-.28.05-.57.12-.83.07-.26-.05-1.08 0-1.62 0-.02.12-.03.1-.13 0-.05-.08-.31-.05-.34.14-.15.09-.24.16-.61.01-.04.12-.02.1-.13-.02-.23.07-.52.12-.83.12-.64.13-1.39.58-1.95-.04-.45-.05-.97.03-1.4.01-.04.12-.02.11-.13-.03-.33.29-.7.33-1.1.03-.25.08-.61.1-.95.02-.25-.05-.53 0-.81 0-.04.11-.02.1-.13 0-.04-.04-.51.04-.59.01-.01.12 0 .12-.02.01-.05-.07-.2-.03-.23.12-.13.12-.29.16-.6 0-.03.12-.03.11-.13-.03-.28 0-.32.03-.58.01-.04-.06-.2-.04-.23.09-.09.08-.31.16-.61.01-.05.12-.01.11-.13-.02-.23.04-.38.16-.61.09-.19.02-.69.07-1.17.01-.1.05-.2.07-.36.01-.09.1-.11.11-.13.06-.53.05-1.03.13-1.53 0-.01.1-.05.11-.13.06-.57.24-1.38.31-2.02.03-.3-.05-.54 0-.82.01-.04.12-.02.11-.14-.01-.08.07-.48.14-.71.02-.06.12-.01.11-.13-.01-.06.07-.18.09-.25.07-.23.07-.44.14-.72.04-.13.13-.24.19-.38.05-.1.11-.35.16-.6.06-.3.17-.77.33-1.1.06-.14.11-.57.24-.85.07-.14.1-.25.19-.38.07-.09.07-.36.16-.61.02-.06.12 0 .1-.13-.01-.15.18-.4.14-.72.4-.07.22-.53.67-.57.22-.19.08-.63.38-.76.2-.05.42-.04.62-.1.3-.09.7-.34 1.11-.17.14.06.58.14.91.21.29.05.64-.1.88-.02.06.02.12.29.18.32.03.05.22-.03.32.05zm-3.07 7.79c-.17.29.07.86-.21 1.08-.03.36-.28.52-.37.87-.09.32-.01.73-.09 1.06 0-.02-.09.11-.1.13-.15.31-.16.83-.23.97-.13.26-.06.58-.12.83 0-.01-.09.11-.1.14-.11.23-.18.37-.16.6.01.12-.1.09-.11.13-.08.34-.01.7-.08 1.06 0 .02-.11.01-.12.02-.11.13.07.34-.05.47-.03.03.05.18.04.23 0 .02-.11.01-.12.02-.04.03.05.19.04.23-.01.02-.11.01-.12.02-.04.04.06.18.04.23-.04.06-.2.08-.23.15-.07.18.15.49-.17.49.03.11.02.23.05.34.03.08.14.09.14.1.04.1-.1.12-.1.13.02.36-.07.83-.1.94-.05.19 0 .29-.05.48-.01.05-.21.1-.23.15-.02.06.03.17.04.23.03.3-.18.42-.16.6.01.11-.1.09-.1.13-.05.28.05.61.02.92-.02.14-.04.21-.07.36-.03.16-.01.26-.05.47-.01.05-.19.2-.21.27-.04.15-.04.37-.05.47-.05.31-.04.42-.02.7.01.11-.1.1-.11.14-.05.31-.05.36-.03.58.03.31-.2.61-.26.74-.11.23-.09.69-.12.83-.01.03.02.08.02.11.01.11-.1.1-.11.13-.05.41.01.83-.1.94-.03.04.05.18.04.23-.03.07-.18.19-.21.27-.09.26-.07.49-.14.72-.06.19-.08.43-.16.61-.05.14-.15.15-.21.26-.14.23-.1.64-.12.83-.01.08-.1.11-.1.13-.11.54-.07.94-.17 1.31-.13.45-.25.84-.32 1.21-.04.23.03.47-.02.7 0 .01-.11.01-.12.02-.01.01-.07.37-.07.36-.01.15 0 .16-.09.25-.01.01-.07.36-.07.36-.04.39.09.59.02.92-.04.19-.13.41-.16.6-.07.42-.18 1.12-.16 1.42.01.1-.1.11-.1.13-.02.22.18.32.19.43.01.12-.1.09-.1.13-.12.63.06 1.66-.05 2.1-.06.25-.08.57-.12.83 0 .01-.11.01-.12.02-.03.03.04.19.03.23-.04.29-.08.57.02.93.44.07.87.07 1.25-.08.03-.01.16-.14.11-.13.41-.08.6.1.74-.11.02-.03.21-.03.24-.04.75-.22 1.31-.09 1.98-.2.49-.07.97-.26 1.46-.34.47-.08.98.01 1.37-.1.45-.13.35-.09.74-.12.01 0-.01-.14.1-.13.04 0 .01.11.14.09.32-.03.71-.14.98-.15.41-.02.89.06 1.02.07.08 0 .17-.03.25-.04.4-.03.62-.01.76 0 .17.02.25-.13.35-.17.44-.18.86.02 1.21-.31.05-.4-.22-.64-.25-.78s.11-.18.07-.35c-.03-.14-.13-.14-.17-.32-.06-.27-.08-.6-.14-.9-.09-.42-.22-.54-.25-.77-.02-.14.07-.19.07-.36-.02-1.23-.26-2.06-.5-3.17-.29-1.42-.48-2.48-.73-3.83-.11-.64-.32-1.28-.42-1.91-.03-.16.07-.42.05-.47-.02-.04-.13.04-.14-.1-.02-.27.03-.51 0-.81-.08-.71-.33-1.62-.34-2.15 0-.09.1-.13.11-.13 0-.1-.14-.1-.14-.1-.29-1.74-.5-3.78-.83-5.32-.06-.29-.18-.49-.25-.77-.27-1.15-.38-2.29-.66-3.38-.09-.34-.32-.65-.37-.76-.03-.07-.02-.16-.04-.23-.12-.53-.22-.82-.32-1.23-.03-.11.1-.11.1-.13.01-.11-.14-.08-.14-.09-.31-1.33-.39-2.87-.87-3.93-.02-.07-.04-.13-.14-.09-.04.14-.21.2-.23.35zM330.9 55.27c.35.07.25-.28.32-.4.02-.04.21-.12.23-.15.07-.24.05-.37.16-.61.15-.33.34-.79.56-1.25.12-.24.29-.49.38-.76.08-.22.08-.49.14-.72.02-.06.2-.22.21-.27.02-.15-.08-.3-.07-.45.17.01.18-.08.23-.15.03-.04.09-.1.11-.13.05-.09.01-.26.07-.36.13-.22.3-.32.42-.53.17-.29.29-.56.49-.89.05-.09.17-.19.21-.27.02-.04-.07-.19-.04-.23.21-.22.41-.72.58-1.13.09-.22.14-.17.18-.49.01-.12.08-.07.1-.13.09-.26.05-.5.14-.72.02-.05.21-.11.23-.15.02-.07-.06-.16-.04-.23.04-.09.17-.19.21-.26.06-.13 0-.24.07-.36.06-.1.15-.14.21-.26.06-.13-.01-.25.07-.36.03-.04.21 0 .25-.04.03-.05-.07-.18-.04-.22.06-.11.15-.14.21-.27.04-.09.01-.25.07-.36.11-.21.26-.15.3-.51.03-.25.45-.68.6-1.02.04-.1.02-.23.07-.36.04-.09.17-.19.21-.27.05-.1.01-.24.07-.36.02-.05.22-.11.23-.15.02-.07-.06-.17-.04-.23.04-.09.17-.18.21-.26.11-.22.18-.42.28-.63.04-.08.18-.19.21-.26.05-.1.01-.24.07-.36.04-.08.18-.19.21-.26.05-.1.19-.33.17-.49 0-.04.07-.2.09-.25.05-.09.17-.18.21-.26.27-.53.52-1.26.84-1.87.04-.07.12 0 .11-.13-.02-.21.36-.53.51-.77.06-.11 0-.24.07-.36.04-.07.19-.2.21-.26.06-.15 0-.24.07-.36.04-.08.15-.17.21-.26.11-.18.16-.36.28-.62.04-.08.18-.19.21-.26.06-.14.02-.24.07-.36.04-.1.18-.19.21-.26.1-.23.06-.51.14-.72.03-.09.17-.19.21-.27.04-.09.01-.26.07-.36.08-.12.36-.34.54-.54.16-.17.25-.37.42-.53.66-.65 1.09-1.07 2.12-.92.02 0 .05.09.14.1.07.01.17-.05.25-.04.08.02.22.17.28.19.11.02.21.17.28.19.32.06.89-.23 1.04.19.03.24.23.29.21.55 0 .02-.12.04-.1.14.01.08-.08.15-.09.24-.03.33 0 .63-.1.95-.04.13.05.44-.17.49-.2.04-.25.36-.42.53-.11.26.05.46-.02.7-.02.05-.12.01-.11.13.02.15-.18.17-.21.27-.01.05.07.19.04.23-.11.1-.16.11-.21.26-.05.15.05.39-.18.49-.38.19-.34.65-.47 1.01-.58.67-.89 1.48-1.28 2.29-.03.07-.09.01-.11.13-.01.16 0 .23-.07.36-.07.13-.25.39-.4.64-.1.17-.3.33-.42.53-.06.1-.01.25-.07.36-.03.05-.21.1-.23.15-.1.24-.15.55-.12.83-.61.55-.62 1.35-.95 2.01-.07.15.03.13-.09.25-.15.15-.35.37-.52.66-.1.17-.19.34-.28.62-.02.05-.09.03-.11.13-.01.08.06.16.04.23-.02.06-.21.22-.21.27-.02.11.06.23.05.34-.15.11-.32.27-.44.42-.09.12-.24.28-.32.39-.03.05.07.19.04.23-.03.04-.22 0-.25.04s.07.19.03.23c-.02.02-.11 0-.12.02-.09.16-.11.35-.17.5-.04.07-.2.22-.21.26-.03.1.08.24.05.34-.02.05-.12.01-.11.13.03.31-.32.49-.5.78-.11.17-.1.36-.18.49-.09.16-.23.36-.3.51-.08.18-.09.33-.18.49-.05.11-.16.12-.21.27-.01.04.07.19.04.22-.03.04-.36.28-.44.42-.36.63-.58 1.37-1.08 1.91-.22.32-.21.55-.37.87-.03.07-.12 0-.11.13.03.28-.56.72-.72 1.04-.03.07-.11 0-.11.13.02.17-.22.21-.31.4-.02.05.07.19.04.23-.01.02-.12.01-.12.02-.02.05.06.2.03.23-.08.08-.08.25-.17.49-.03.07-.12 0-.11.13.02.15-.2.22-.19.38.01.14-.16.45-.28.63-.02.04-.22.12-.22.15-.09.3-.08.52-.24.85-.09.19-.07.48-.1.95-.02.24-.14.5-.14.72-.01.58.16 1.15.14 1.72-.01.41-.2.82-.19 1.19.02.72.36 1.4.46 2.13.08.59.03 1.26.06 1.96.01.19-.13.12.04.23.18.13-.04 1.23-.03 1.4.02.36.12.67.16 1.02.05.48.07.86.11 1.49 0 .08.04.16.04.23-.01.05-.1.16-.11.14.02.24.17.27.19.43.03.18-.08.21-.07.36.02.62.02 1.26.04 1.85.04 1.38.35 2.46-.2 3.51.06.44.07.73.07 1.27 0 .03.06.2.04.22-.01.01-.12.01-.12.02-.01.33.1.67.06 1.15-.01.14-.13.33-.02.7.11.35.13.49.18 1.14 0 .09-.07.21-.07.36 0 .26.13.54.14.91.01.18-.07.21-.07.36.04.84.05 1.68.15 2.53.01.06.01.17.04.23.01.02.24.49.14.91-.02.1-.2.11-.21.26-.02.37.07.76.04 1.04-.04.33.1 1.06.11 1.49.01.52 0 1.08.01 1.62 0 .15.07.3.07.46.01.24-.11.68-.08 1.06.02.35.14.75.18 1.14.03.26-.03.66.02.92.01.08.12.12.16.21.11.26.05.67.26.88.12.11.2.14.32.41.03.07.01.16.04.23.09.2.11.2.11.68-.01.41-.17.91-.16 1.42.02.65.24 1.29.18 1.95-.01.09.12.38.07.45-.09.12-.12.23-.19.38-.08.17-.43.31-.4.64-.42 0-.73-.01-1.12.06-.37.06-.66.26-.97.26-.01 0-.04-.1-.14-.09-.04 0-.09.02-.12.02-.09-.02-.11-.09-.14-.1-.18-.03-.33.02-.51-.03-.25-.08-.43-.29-.69-.36-.3-.84-.27-1.63-.42-2.72-.05-.35.06-.16-.07-.45-.11-.23.1-.33.02-.7-.04-.17-.16-.18-.18-.32-.04-.29.03-.56 0-.81-.03-.28-.12-.62-.14-.91-.02-.3.04-.54 0-.81-.09-.57-.29-1.14-.39-1.68-.27-1.46-.29-2.62-.39-4.12 0-.07-.04-.15-.04-.23.02-.15.12-.75.09-1.05-.06-.45-.27-.9-.21-1.37.03-.23-.05-.21.07-.36.11-.14-.23-.65-.25-.77-.01-.1.11-.12.1-.13-.04-.33-.08-.66-.16-1.02-.07-.3-.23-.58-.26-.88 0 .02.11-.07.1-.13-.02-.21-.1-.47-.12-.79-.02-.23.07-.33.05-.47-.03-.18-.17-.18-.18-.32-.01-.2.06-.26.05-.47 0-.15-.07-.3-.07-.46 0-.3.12-.55.12-.83-.02-.59-.15-1.23-.16-1.84-.01-.41.01-.86.05-1.28.01-.08-.04-.15-.03-.23.03-.25 0-.2-.11-.68-.12-.52-.15-1.13-.14-1.72 0-.01.12-.04.11-.13-.02-.16-.15-.42-.11-.68.06-.35-.07-1.21-.02-1.73.03-.33-.04-.58-.05-1.16 0-.2.08-.26.05-.47.01.03-.13-.04-.14-.09-.06-.29.03-.51 0-.82-.04-.42-.17-.82-.2-1.24-.02-.29-.06-.44 0-.82.01-.04.11-.16.11-.13-.04-.35-.25-.65-.28-1-.05-.61-.01-1.24-.04-1.85-.03-.5-.11-.88-.11-1.49 0-.17.09-.23.07-.36-.03-.23-.15-.36-.25-.77-.07-.28.03-.59-.25-.78.08-.32.17-.67.23-.97.11-.68.08-1.34-.34-2.15.02.03-.14-.09-.14-.09-.04-.04-.13-.3-.17-.32-.13-.07-.12-.14-.18-.32-.01-.03 0-.21-.04-.23-.01 0-.12.03-.12.02-.15-.24-.33-.47-.49-.73-.02-.04 0-.21-.04-.23-.11-.06-.1-.07-.16-.21 0 0-.16-.31-.18-.32-.01-.01-.11.03-.12.02-.03-.04 0-.2-.03-.23-.02-.01-.11.03-.12.02-.03-.04 0-.21-.04-.23-.14-.08-.19-.35-.35-.64-.02-.04-.12.02-.14-.1-.06-.27-.47-.75-.67-1.06-.02-.04 0-.21-.04-.23-.13-.07-.45-.45-.62-.72-.02-.04.01-.21-.03-.23-.26-.14-.45-.73-.67-1.05-.23-.34-.55-.63-.77-.92-.06-.08-.25-.14-.28-.19-.13-.22-.07-.37-.23-.66-.02-.04-.12.02-.14-.09-.04-.17-.39-.68-.53-.96-.02-.03 0-.2-.04-.23-.1-.05-.2-.31-.35-.64-.09-.2-.12-.38-.21-.55-.2-.35-.6-.61-.79-1.04-.11-.24-.28-.67-.41-.98 0 0-.12-.04-.14-.09-.09-.21-.07-.69-.26-.89-.08-.08-.16-.34-.34-.53-.08-.09-.32-.09-.41-.17-.17-.17-.28-.7-.53-.96-.1-.11-.09-.46-.21-.54-.22-.15-.6-.79-.81-1.15-.24-.42-.41-.77-.58-1.3-.02-.08 0-.41-.07-.45-.01-.01-.12.03-.12.02-.04-.08 0-.41-.07-.45-.19-.13-.55-.88-.7-1.28-.13-.34-.14-.7-.28-1-.06-.13-.23-.28-.32-.42-.1-.16-.09-.26-.19-.43-.02-.04-.12.02-.14-.09-.01-.04-.01-.32-.05-.34-.26-.14-.36-.83-.69-1.17-.12-.12-.13-.22-.2-.44-.01-.03-.01-.21-.04-.22-.26-.14-.49-.95-.72-1.4-.24-.46-.49-.79-.72-1.4-.03-.08 0-.41-.07-.45-.13-.09-.48-.54-.41-.98.17-.09.29-.21.46-.3.14-.04.09-.32.19-.38.29-.18 1.55-.06 1.83-.4.34.06.39.44.72.59.05.02.2-.07.24-.04.07.06.39.28.54.26.23-.03.41.18.67.24.13.06.05.46.21.54.16.09.06.16.18.32.02.04.25.05.27.08.18.35.29.97.47 1.44.02.05.11.49.21.54.17.09.1.22.19.43.09.2.33.27.19.43.01-.02.04.52.1.68.17.41.56.8.83 1.26.26.45.47.96.72 1.4.02.04.11-.03.14.09.05.24.19.28.34.52.19.32.25.73.55 1.08.15.17.18.12.32.41.04.1.11.18.17.32.05.11.31.72.41.98.1.29.14.67.26.89.12.23.16.26.32.42.05.05.1.16.16.2.05.03.23.04.26.07.03.04-.01.2.04.23.02.01.12-.03.12-.02.03.04 0 .2.04.23.02.01.11-.04.12-.02.03.04-.01.2.03.23.03.02.25.06.26.07.08.12.01.33.07.45.03.06.26.15.28.19.15.29.29.64.39.86.03.06 0 .17.04.23s.25.14.28.19c.04.06.01.16.04.23 0 0 .16.32.17.32.24.13.24.57.51.85.11.11.25.43.35.64.03.06 0 .17.04.23.04.07.24.13.28.19.09.13.09.21.18.32.24.31.36 1.11.64 1.65.14.27.29.41.47.62.07.09.09.21.17.32.05.06.25.13.28.19.11.16.11.31.19.43.14.22.39.6.53.96.31.11.47.41.72.59.02.54.36.69.18 1.13.27.36.64.59.91 1.02.21.32.24.75.42 1.1.13.25.42.47.58.75zm-6.51-6.99c.01.08.02.15.04.23.33.13.3-.44.07-.36 0 .07 0 .14-.11.13z"/></g><path fill-rule="evenodd" clip-rule="evenodd" fill="#39d7c2" d="M95.71 28.83c.23-.12.3.15.4.17.15.03.34-.1.49-.07.05.01.01.11.14.1.03-.01.09-.02.12-.02.13.03.21.05.38.06.13.01.73.04 1.13.07.03.01.03.1.14.1.28-.03.44-.06.75.01.04.01.04.08.14.09.25.02.25.07.52.16.12.04.33.17.52.16.3-.03.42.24.67.36.19.08.47.06.64.13.21.09.45.16.65.25.09.04.19.15.28.19.06.03.2.04.26.08.33.24.37.71.85.79.09.76.15 1.55.63 1.84.22.34.22.71.4 1.08.02.04 0 .2.03.22.27.15.07.31.21.65.03.08.13.08.14.09.16.4.32.9.45 1.42.01.06-.01.61.09.67.01.01.12-.02.12-.02.12.48.24 1.04.34 1.54.04.22.18.59.12.89-.01.04-.1.16-.11.12.01.1.17.24.18.43.01.11-.09.26-.06.46.01.09.14.25.18.43.07.29.16.71.15 1.12 0 .16-.09.22-.08.35.03.24.15.27.18.43 0-.01-.19.27-.08.35.01 0 .12-.02.12-.02.05.33-.01.69.02 1.02.07.86.19 1.63.23 2.58.01.23-.07.31-.06.47.02.24.16.27.18.43.01.1-.09.27-.06.46 0-.03.12.04.14.09.02.11.04.23.04.33.01.2-.09.25-.06.46.01.09.14.25.18.43.09.42.04.96.08 1.46.04.54.11 1.08.23 1.67.02.08.17.1.15.21-.01.03-.11.03-.11.13.02.33-.04.64 0 .91.07.5.39 1.01.46 1.53 0-.03-.11.06-.11.12.01.15.06.3.06.45 0 .41-.08 1.02-.03 1.59.05.55.29 1.12.35 1.65.07.59-.01 1.18 0 1.82 0 .08.13.5.08.55-.13.13 0 .37.11.78.04.14.01.31.06.45.04.11.15.15.17.32 0-.02-.11.07-.11.13.07.9.04 1.89.15 2.93.04.4.14.77.15 1.11.01.35-.08.7-.1 1.04-.05.71.08 1.45.06 2.26 0 .11-.06.27-.06.46 0 .11.06.23.05.34-.01.05-.11.14-.11.13 0 .98.17 2.02.16 2.93 0 .11.07.23.05.34-.02.11-.06.33-.03.68.01.1.06.24.05.33-.01.04-.1.16-.11.13.04.38.26.73.28 1.09.01.2-.05.26-.06.46 0 .08.12.38.06.45-.01.01-.12.01-.12.02-.01.08.11.38.06.45-.08.1-.07.09-.09.24-.01.12-.06.31-.03.68 0 .01-.14.03-.11.13.01.03.14-.02.14.09 0 .01-.11.04-.11.13.01.09.07.24.05.33-.01.05-.21.23-.21.25-.03.49.11.94.09 1.58-.01.25-.12.83-.07 1.26.02.24.16.27.18.43.05.37-.18 1.02-.29 1.51-.07.34-.2.72-.23 1.05-.04.57.17 1.21.12 1.8 0 .01-.11.03-.11.13 0 .03.02.08.02.11-.03.12-.06.19-.08.35-.01.1-.06.2-.07.35-.01.1-.06.21-.08.35-.02.14-.09.54-.12.93-.02.27.03.62-.02.79-.02.05-.12.01-.11.13.03.38-.44.68-.73 1.01-.05.22-.07.51-.15.7-.03.09-.18.18-.21.26-.04.09-.02.25-.08.35-.11.19-.4.35-.55.53-.23.26-.38.55-.62.88-.13.18-.58.46-.5.86-.34.04-.53.34-.79.56-.09.08-.27.37-.44.4-.16.03-.16.24-.34.27-.03.01-.19.11-.23.14-.04.03-.05.22-.09.24-.29.17-.51.22-.81.45-.11.08-.18.1-.35.16.01 0-.34.15-.35.16-.03.04-.23.19-.58.31-.11.03-.26 0-.37.05-.1.04-.34.13-.72.21-.25.05-.3.14-.47.18-.03.01-.23.01-.24.04-.01.01.02.11.02.11-.22.06-.42-.08-.87.01-.11.02-.27.13-.47.18-.55.12-1.56.16-2.1.06-.03-.01-.04-.09-.14-.1-.16-.01-.46.06-.75-.01-.08-.02-.21-.18-.27-.19-.27-.06-.59 0-.89-.1-.1-.04-.19-.14-.27-.19-.1-.05-.24-.05-.27-.19-.55.01-1-.34-1.45-.59-.4-.23-.88-.47-1.22-.74-.18-.14-.29-.35-.44-.5-.08-.08-.19-.08-.27-.19-.07-.08-.08-.22-.17-.32-.06-.07-.22-.13-.27-.19-.07-.08-.08-.22-.17-.32-.07-.07-.21-.13-.27-.19-.15-.14-.4-.48-.6-.71-.05-.07-.25-.15-.27-.19-.05-.08.02-.25-.05-.33-.06-.07-.2-.08-.27-.19-.09-.12-.09-.21-.17-.32-.2-.29-.47-.72-.66-1.16-.19-.46-.36-.93-.56-1.4-.11-.24-.12-.42-.21-.65-.46-1.18-.86-2-.98-3.5-.01-.14-.08-.31-.06-.45.01-.1.1-.12.09-.24 0-.09-.17-.16-.17-.32 0-.01.11-.04.11-.13-.01-.12.04-.57.01-.79-.06-.52-.28-1.04-.34-1.55-.01-.08.08-.21.08-.35-.02-.79-.19-1.78-.25-2.69-.03-.46-.05-.99-.08-1.46-.06-.98-.04-1.94-.03-2.95 0-.1.08-.2.08-.35 0-.32-.15-.77-.17-1.23 0-.09.08-.2.08-.35-.01-.28-.04-.66-.02-1.02.01-.25.15-.44.15-.7 0-.24-.11-.54-.11-.78 0-.1.08-.2.08-.35-.01-.42-.08-.89-.08-1.46 0-.22-.03-.4.01-.79.01-.1.09-.13.09-.24.01-.49-.1-.97-.08-1.47.01-.24.13-.48.15-.7.01-.15-.08-.3-.06-.45.01-.09.09-.12.09-.24.01-.46-.1-.99-.08-1.47.03-.46.18-.92.18-1.39 0-.23-.09-.55-.11-.78-.01-.17.1-.22.08-.35-.04-.21-.19-.23-.08-.56.02-.05.09-.03.11-.13.03-.26.02-.22.04-.57 0-.04-.05-.2-.03-.23.11-.11.13-.51.15-.7.04-.44-.03-.92.04-1.48 0 0 .1-.06.11-.13.01-.07-.11-.39-.06-.44.18-.17.02-.76.09-1.15.03-.18.01-.64.11-1.04.02-.06.21-.22.21-.26 0-.03-.25-.89-.14-1 .11-.11.11-.37.15-.7.12-.9.64-1.8.38-2.66.27-.36.35-.79.46-1.2.01-.03.09-.04.1-.12.03-.22.04-.31.06-.47.12-.8.19-1.73.39-2.55.13-.52.37-1.24.49-1.88.08-.47.09-.83.2-1.28.04-.17.11-.42.17-.59.03-.1.2-.2.22-.26.07-.24-.03-.37.03-.69.02-.09.08-.13.09-.24.04-.3.01-.58.14-.81.05-.09.1-.28.18-.48.04-.1.02-.23.08-.35.03-.08.19-.19.21-.26.17-.43.31-.87.44-1.31.06-.21.09-.49.15-.7.03-.11.2-.19.21-.26.04-.14-.1-.31-.06-.44.02-.07.2-.2.21-.26.02-.07-.04-.15-.03-.22.01-.11.15-.55.26-.83.01-.05-.06-.19-.03-.22.09-.09.34-.18.32-.38-.02-.23.26-.48.39-.74.14-.26.35-.81.46-1.2.01-.04-.06-.2-.03-.22.13-.13.01-.17.07-.35.03-.08.45-.36.28-.72.29-.18.46-.44.78-.68.06-.04.18-.09.23-.14.04-.04-.07-.18-.03-.22.04-.04.2.01.24-.04.06-.07.04-.16.09-.24.04-.07.19-.19.21-.26.04-.1-.06-.22.09-.24.37-.17.71-.39 1.04-.6.08-.05.15-.21.21-.26.04-.03.22.01.24-.03.16-.12.73-.21.94-.5zm2.79 4.95c-.34-.16-1.01.03-1.22.17-.02.02-.1 0-.12.02-.28.33-.89 1.07-1.05 1.39-.06.13-.15.15-.22.26-.21.31-.33.66-.49.97-.05.09-.22.11-.21.26.01.12-.08.06-.11.13-.1.24.04.46-.17.59-.02.12-.14.17-.21.25-.07.09-.06.22-.21.26.16.3-.11.66-.15.7-.03.03.04.18.03.22-.12.46-.3.89-.46 1.2-.02.03-.08.07-.11.13-.06.12-.06.19-.08.35-.03.21-.13.42-.17.59-.1.45-.18.69-.23 1.06-.03.21-.12.43-.17.59-.01.03-.08.05-.11.13-.08.27-.09.48-.15.7-.11.4-.26.86-.33 1.18-.04.15-.02.25-.06.46-.11.53-.4 1.16-.01 1.7-.27.12-.41.57-.4.73.01.12-.09.08-.11.13-.05.16-.01.39-.05.57-.05.24-.13.4-.17.59-.21.96-.3 2.04-.47 2.9-.07.35-.12.59-.12.92 0 .28-.07.28-.05.57.04.4-.08.59-.12.92-.05.35-.08.63-.15.7-.03.03.04.18.03.22-.09.31-.22.57-.26.83-.02.14.05.31.06.45.01.09-.11.11-.11.12-.01.15.05.3.06.45.01.11-.1.1-.11.13-.03.17-.01.43-.04.57-.04.16-.18.22-.2.37-.01.08.04.15.03.22-.08.56.01 1.6-.24 1.85-.18.17.15.51-.03.69-.05.05.08.47.08.56.02.78-.18 1.72-.04 2.39.01.05.14.13.14.09.02.19-.18.38-.17.59.04.71.35 1.72.03 2.04-.02.03.03.19.03.23-.01.73.1 1.16-.27 1.62.16.99-.23 1.76.11 2.59-.1.17-.06.43-.31.5-.17.04-.07.2-.08.35-.01.44-.02.66.03 1.13.01.14-.12.17-.08.35 0-.02.12.04.14.09.02.06.03.16.03.22.03.5-.05 1.06-.03 1.59.01.19.07.37.08.56.02.4-.06.36.06.44.12.08.12.85.12.89.01.07-.1.15-.11.13.05.53.19 1.19.22 1.56.01.06-.1.15-.11.13.01.11.12.12.15.21s.04.24.05.33c.06.77-.01 1.52.06 2.26.08.83.17 1.71.34 2.45.09.37.15.3.21.65.02.09.14.09.14.1.1.32.07.76.15 1.11-.01-.02.11.05.14.1.22.45.11 1.08.2 1.45.04.18.17.33.18.43.03.15-.11.23-.06.46 0-.03.12.05.14.09.04.09.02.24.05.33.26 1.07.66 1.92.89 2.83.22.01.23.31.31.41.03.04.22.03.26.08.14.19 0 .33.18.43.03.02.02.19.03.22.14.39.31.84.5.95.11.06.06.37.29.3.2.22.54.2.79.35.11.06.19.23.29.3.28.2.49.26.67.36.05.02-.01.19.03.22.08.07.18.11.27.19.04.03.19-.06.24-.03.26.14.53.29.81.45.36-.07.69-.04.99-.02.36.01.71.12 1.01.09.13-.02.19-.11.35-.16.64-.17 1.01-.23 1.57-.33.48-.28.46-.89 1.1-1.06.08-.57.94-1.13.9-1.6-.01-.12.09-.07.11-.13.09-.26.08-.57.14-.82.09-.4.25-.76.21-1.17.24-.14.33-.38.27-.72.26-.05-.05-.26-.05-.34 0-.02.1-.03.11-.12.01-.33.04-.6.15-.7.18-.17-.15-.5.03-.69.03-.03-.04-.19-.03-.23.33-1.26.21-2.85.18-4.11 0-.16.07-.25.08-.35.04-1 .03-1.87.12-2.74.05-.47.16-.93.18-1.38.06-1.33-.27-3.19-.37-4.49-.01-.08.11-.14.11-.13 0-.14-.16-.13-.17-.32 0 .01.1-.07.11-.13.01-.07-.03-.15-.03-.22-.05-.81-.02-1.34-.03-2.04-.01-.53-.1-1.03-.09-1.57 0 0 .1-.06.11-.13.07-.56-.07-.91-.08-1.46 0-.12.08-.15.09-.24.01-.14-.06-.3-.06-.44-.02-.81.01-1.69-.09-2.49-.07-.54-.28-1.1-.35-1.65-.05-.38-.02-.72-.03-1.13-.02-.8-.16-1.45-.29-2.11-.23-1.17-.05-1.98-.15-2.93-.03-.3-.18-.56-.25-.88 0-.01.15-.02.11-.13-.01-.03-.11.01-.14-.1-.23-.91.02-1.59-.08-2.37-.05-.4-.25-.8-.29-1.21-.01-.14.07-.24.06-.47-.01-.35.01-.58.03-.68.02-.11-.05-.23-.05-.34.01-.53-.05-.71-.15-1.11-.39-1.48-.23-2.74-.29-3.93 0-.01-.15.02-.14-.09 0-.04.11-.02.11-.13-.01-.19-.07-.37-.08-.56-.01-.32.02-.72-.02-1.02-.06-.42-.23-.78-.29-1.21-.05-.4-.01-1.07-.06-1.36-.02-.08-.13-.09-.14-.09-.03-.1.09-.23.09-.24-.06-.32-.19-.43-.2-.54-.02-.19.05-.42.04-.57-.03-.85-.28-1.53-.43-2.21-.36-1.65-.67-2.84-1.32-4.13-.22-.3-.65-.35-.95-.55-.31.07-.26-.28-.38-.34zM183.62 37.27c-.58.2-.76.51-1.43.42-.16-.02-.28-.1-.4-.17.01.01-.18-.1-.14-.09-.62-.15-1.31-.34-1.71-.67-.2-.17-.17-.4-.21-.65-.02-.09.11-.13.09-.24.01.02-.12-.03-.14-.09-.05-.23-.31-.5-.26-.99.02-.17.12-.39-.09-.67-.05-.06-.24-.14-.27-.19-.31-.45-.39-1.23-.75-1.82-.02-.03-.1-.01-.14-.1-.02-.06.01-.17-.03-.22-.11-.14-.26-.26-.43-.4-.18-.15-.28-.27-.55-.38-.14-.06-.25-.11-.4-.17-.06-.03-.1-.08-.14-.09-.11-.04-.34-.17-.52-.16-.06.01-.18-.06-.26-.08-.23-.05-.47-.15-.76-.12-.23.02-.33-.07-.62-.03-.73.1-.98.59-1.89.71-.2.03-.22.29-.32.38-.04.04-.22-.01-.24.03-.09.13-.09.26-.32.38-.04.02-.22 0-.24.03-.13.19-.37.49-.64.77-.03.03-.06.22-.09.24-.09.05-.43.1-.47.18-.03.05.07.18.03.22-.08.1-.27.17-.34.27-.2.34-.23.67-.35 1.07-.28.11-.32.41-.41.63-.02.04.07.19.03.22-.14.14-.21.22-.3.5-.05.17.01.29-.06.46-.02.06-.2.21-.22.25-.06.27.02.62 0 .91-.35.29-.32.9-.44 1.31-.01.04.06.19.03.22-.01.01-.11 0-.12.02-.06.24 0 .36-.04.57-.03.15 0 .42-.05.57-.02.06-.21.1-.23.15-.03.1.07.23.05.33-.08.32-.12.71-.36.96.03.4.09.65.03 1.13-.01.1-.06.2-.08.35-.01.09-.1.1-.11.13-.07.52-.07 1.09-.15 1.61 0 .03-.12.02-.11.13.05.66-.29 1.38-.33 2.09-.02.38.11.84-.07 1.26-.04.08-.2.21-.21.26-.03.09.12.37.06.44-.08.09-.07.09-.09.24-.01.09-.1.1-.1.13-.03.24.11.48.11.78 0-.02-.1.08-.11.13-.01.07.11.39.06.44-.01.01-.12.01-.12.02-.06.88-.05 2-.21 2.98-.01.04.06.2.03.22-.11.11-.08.16-.08.35 0 .03.05.2.03.22-.13.13-.1.71.15 1.12-.3.25-.17.62-.24.94-.01.04-.12.02-.11.13 0 .03.02.08.02.11-.05.17-.16.37-.17.59-.02.7.27 1.36.29 2.12.01.46-.17.91-.18 1.39-.01.54.12 1.19.13 1.8 0 .29.01.52-.02.8-.06.78.11 1.94.02 2.84-.03.26-.01.36-.02.8 0 .17-.08.21-.07.35.01.14.24.2.2.54-.01.05-.11.15-.11.13.04.54.06.75.05 1.24 0 .08.04.15.03.22-.01.08-.11.11-.11.13-.07.66.05 1.62.09 2.48.02.31.13.59.12.89 0 .25-.17.47-.15.7.02.25.19.5.23.76.03.24-.03.55-.01.8.05.87-.03 1.46.08 2.37.06.52.09 1.05.09 1.58 0 .14.08.3.06.44-.04.32.04.51.15 1.11.03.14.01 1.03.15 1.11.16.09.01.14.08.56.02.14.02.3.06.45.04.16.14.18.17.32.04.2-.1.25-.06.46.06.33.33.91.46 1.52.02.07 0 .16.03.22.04.09.11.18.17.32.04.1.24.22.3.41.11.34.04.78.15 1.11.07.2.25.43.34.64.23.53.29.9.57 1.4.01.02.1.02.14.1.09.22.16.59.37.86.05.07.22.13.27.19.07.09.08.21.17.32.05.06.24.13.27.19.27.38.4.84.66 1.16.38.48.96.88 1.42 1.28.25.22.46.48.72.7.24.2.6.25.7.58.5.04.75.39 1.08.65.56.01.96.25 1.42.37.22.06.49.07.76.12.04.01.04.09.14.1.22.02.46.15.87-.01 0 0 .34-.15.35-.16.01-.02-.03-.1-.01-.11.04-.02.22 0 .24-.03.01-.02-.03-.1-.01-.11.04-.03.22 0 .24-.03.07-.11.21-.23.44-.4.1-.08.2-.24.33-.27.1-.02.72-.71.87-.92.07-.1 0-.25.07-.35.04-.05.2-.09.23-.14.09-.17.05-.44.15-.7.03-.08.19-.18.21-.26.1-.23.02-.39.15-.7.03-.07.19-.2.21-.25.02-.07-.04-.16-.03-.22 0 0 .07-.34.08-.35.01-.01.12 0 .12-.02.14-.41.19-.86.32-1.29.02-.07.2-.2.21-.25.02-.07-.04-.16-.03-.22.02-.12.13-.27.18-.48.01-.04-.06-.19-.03-.22.22-.21-.02-.32.03-.69.01-.11.09-.59.12-.93.03-.46.05-.66.09-1.15 0-.04-.05-.2-.03-.22.01-.01.12-.01.12-.02.03-.29-.02-.52.01-.8.07-.55.36-1.44.2-2.18.14-.04.08-.22.08-.35.17.01.18-.07.23-.15.1-.15.02-.25.06-.46.04-.24.06-.78.07-1.26 0-.04-.05-.2-.03-.22.11-.11.14-.51.15-.7.07-1 .06-2.29.15-3.42.03-.41.07-.57.11-1.04 0-.04-.06-.2-.03-.22.01-.01.12 0 .12-.01.03-.24 0-.46.03-.69.01-.06-.04-.49.04-.57.18-.18-.15-.51.03-.68.11-.11.14-.51.15-.7.03-.43.04-.93.06-1.37-.51-.46-1.29-.06-2-.07-.27-.01-.64-.03-.89-.1-.07-.03 0-.1-.14-.1-.47.01-.77.17-1.2.28-.23-.16-.62-.13-.79-.35-.44.14-.55-.12-.99.02-.46-.23-1.08-.26-1.88-.08-.21-.4-.56-.62-.87-.9-.38-.16-.34-.8-.54-1.18.2.19.83-.57 1.07-.37.01 0 .2.16.26.07.01-.01-.03-.11-.01-.11.17-.05.2.08.26.08 1.09-.11 2.26-.5 3.42-.47.12 0 .21.06.38.06.68-.01 1.59-.13 2.35-.09.02 0 .03.1.14.09.37-.03.34 0 .75.01.26.01.6-.03.87 0 .02 0 .03.1.14.09.45-.04.98.1 1.51.13-.08.31.39.24.44.51.01.03 0 .08.02.11.09.15.3.75.4 1.08.06.19.16.22.18.43.01.11-.1.26-.06.46 0-.02.12.03.14.09.14.7.17 1.61.21 2.47 0 .08.04.16.03.23-.03.28-.04 1.07-.01 1.71 0 .07.04.15.03.22-.02.2-.09.22.08.56.02.03.12-.02.14.09.05.26.01.56-.01.8-.01.08.12.38.06.44-.12.14-.01.2-.05.57 0 .02-.11.04-.11.13 0 .03.02.08.01.11s-.11.16-.11.13c0 .19.14.18.17.32.03.18-.1.21-.08.35.05.28.21.4.21.65 0 0-.11.05-.11.13.01.14.07.3.06.44 0 .01-.11.04-.11.13.01.15.08.3.06.45 0 .02-.12.04-.11.13.01.14.08.3.07.44 0 .02-.12.04-.11.13 0 .04.07.31.05.33-.1.09-.02.12.05.33.22.76.15 1.72.09 2.49-.26.27.14.53.12.89 0 0-.11.04-.11.12.01.07-.04.32-.06.46-.01.07-.11.13-.11.13-.02.66.23 1.3.14 1.91 0 .03-.11.02-.11.13 0 .03.02.08.02.11-.03.1-.07.35-.17.59-.02.05-.21.1-.23.14-.06.19.04.35-.18.48.23.44-.23.89-.2 1.27.01.2-.08.25-.06.46.02.3-.13.43-.27.72-.04.08-.02.25-.08.35-.1.16-.16.12-.2.37-.03.27-.35.52-.5.86-.28.11.12.69-.13.81-.39-.07-.19.22-.32.38-.08.1-.33.1-.46.29-.03.05-.05.2-.09.24-.09.08-.25.07-.35.16-.05.04-.05.21-.09.24-.04.03-.22 0-.24.03-.01.02.03.1.01.11-.04.02-.22 0-.24.03-.06.1-.11.29-.2.37-.04.04-.21-.01-.24.03-.09.13-.43.23-.69.44-.12.1-.19.19-.33.27-.16.09-.4.09-.59.19-.08.04-.1.19-.21.26-.04.02-.22 0-.24.04-.09.13-.61.3-.93.47-.04.02-.22 0-.25.03-.2.3-.78.28-1.3.52-.04.02.01.11-.11.13-.2.04-.2.11-.35.16-1.29.44-2.7.73-3.78.52-.04-.01-.21.06-.24.03-.01-.01 0-.11-.02-.11-.21-.05-.39-.08-.64-.14-.78-.2-1.53-.39-2.33-.7-.12-.05-.18-.14-.27-.19-.05-.02-.21.07-.25.04-.01-.01.01-.1-.01-.11-.48-.21-1.18-.4-1.39-1.06-.36.17-.49-.15-.66-.25-.15-.08-.39-.15-.53-.27-.04-.03.01-.2-.03-.22-.05-.03-.23-.05-.26-.08-.03-.04.01-.2-.03-.22-.05-.02-.23-.05-.26-.08-.03-.04.01-.2-.03-.22-.24-.13-.32-.32-.58-.6-.07-.08-.29-.22-.43-.4-.11-.13-.07-.28-.18-.42-.05-.07-.23-.13-.28-.19-.11-.14-.08-.28-.18-.43-.04-.05-.11.02-.14-.1-.02-.1-.18-.28-.3-.41-.09-.1-.1-.17-.17-.32-.04-.1-.11-.04-.14-.09-.3-.46-.54-.92-.81-1.36-.15-.25-.34-.49-.47-.73-.25-.44-.51-1.01-.72-1.6-.09-.24-.14-.58-.25-.88 0-.01-.12 0-.14-.1-.08-.42-.29-1.07-.48-1.64-.17-.54-.47-1.08-.59-1.62-.37-1.55-.56-3.36-.69-5.01-.08-1-.01-2.03-.05-3.06-.03-.78-.04-1.46-.06-2.26 0-.14-.08-.3-.06-.45.02-.15.05-.31.03-.69 0-.07-.04-.15-.03-.22.01-.13.04-.24.04-.58 0-.03-.05-.2-.03-.22.16-.16.04-1.11.03-1.59-.01-.52-.01-1 .05-1.48.04-.42.17-.85.2-1.27.02-.41-.04-.81-.05-1.24-.01-.74-.08-1.52-.08-2.38 0-.38-.03-.76-.03-1.13 0 0 .11-.04.11-.12-.04-.5-.06-1.01-.11-1.69-.01-.1-.07-.23-.05-.33.02-.1.02-.42.01-.8-.01-.35.06-.6.1-1.03.06-.52-.01-1.37-.05-2.15-.02-.48-.13-1.09-.09-1.58 0-.02.12-.03.11-.13 0-.04-.08-.31-.05-.33.16-.16.17-.64.22-1.05.01-.03.12-.03.11-.13-.06-.71.13-1.53.18-2.3.05-.68.04-1.36.09-2.05.03-.35.09-.68.11-1.03.02-.55-.04-.9.06-1.37.01-.04.12-.02.11-.13-.01-.11.19-.59.26-.83.01-.04-.06-.19-.03-.22.11-.11.08-.17.08-.35 0-.03-.05-.2-.03-.22.08-.08.12-.34.17-.59.01-.04-.06-.19-.03-.22.01-.01.12 0 .12-.02.01-.04-.06-.19-.03-.22.14-.14.26-.69.35-1.07.17-.7.28-1.41.46-2.11.04-.14.21-.22.2-.37 0-.04-.07-.31-.05-.34.01-.01.12 0 .12-.02.01-.04-.06-.19-.03-.22.11-.1.08-.16.08-.34 0-.04-.05-.2-.03-.23.23-.22.3-1.19.39-1.64.16-.7.28-1.35.59-2.01.03-.07.12 0 .11-.13-.01-.14.17-.16.21-.25.02-.04-.07-.19-.03-.22.01-.02.12 0 .12-.02.01-.05-.06-.19-.03-.23.02-.02.12 0 .12-.02.02-.05-.06-.19-.03-.22.19-.19.26-.41.39-.74.04-.1-.08-.24-.04-.33.02-.06.44-.3.43-.51 0-.02-.03-.09-.02-.11.08-.15.23-.23.32-.38.02-.05-.07-.19-.03-.22.09-.09.34-.18.32-.39-.01-.16.2-.27.18-.48-.01-.1.15-.2.08-.35.27-.11.48-.29.68-.44.2-.15.38-.25.56-.42.1-.09.11-.28.2-.37.14-.14.37-.23.57-.42.05-.05.17-.23.21-.26.14-.09.47-.09.71-.21.06-.03.17-.24.21-.26.11-.05.26 0 .37-.05.41-.19.8-.44 1.16-.61.24-.12.77-.27 1.33-.3.47-.02.88.08 1.51.13.18.02.6.15 1.02.2.28.03.25 0 .62.03.14.01.66.1 1.02.2.22.06.43.2.66.25.07.02.17-.04.25-.04.14.02.62.14.9.22.05.01.03.08.14.09.07 0 .19-.06.24-.04.05.02.11.2.15.21.17.04.31.03.52.16.2.12.31.38.55.38.28.15.59.25.93.44.06.03.06.06.13.09s.15-.02.14.09c.23.38.4.81.76 1.03.23.16.19.64.26.98.34.46.71.88 1.05 1.33-.05.1.13.36.06.44-.06.07-.15.2-.08.35.02.04.29.35.32.52.03.2-.1.25-.06.46.15.66.35 1.3.18 1.95zM70.26 35.4c-.23-.05-.29.13-.35.16-.04.03-.22 0-.24.03-.06.09-.16.16-.35.16-.09 0-.29-.07-.26-.08-.51.11-.88.3-1.33.3.02 0-.08-.09-.14-.09-.18-.02-.67.03-.88-.1-.06-.04-.09-.18-.15-.21-.17-.08-.38-.08-.52-.16-.12-.06-.17-.3-.41-.28-.03 0-.44-.19-.53-.27-.04-.03.01-.2-.03-.22-.14-.07-.28-.07-.41-.28-.02-.04.01-.2-.03-.22-.01-.01-.12.03-.12.02-.14-.23-.21-.54-.35-.75-.04-.05-.11.03-.14-.1-.02-.11-.2-.29-.31-.41-.11-.13-.29-.17-.41-.29-.04-.03.01-.2-.03-.22-.3-.16-.61-.51-1.08-.64-.17.08-.29.21-.46.29-.07.23-.09-.11-.26-.08-.14.03-.25.2-.34.27-.04.04-.21-.01-.24.03-.04.04.06.18.03.22-.08.12-.12.24-.2.37-.06.1-.16.17-.21.25-.03.05.07.19.03.22-.1.1-.31.22-.44.4-.03.04.07.18.03.22-.11.1-.4.14-.44.4.01.44-.17.72-.21 1.16-.01.07.04.15.03.22-.01.08-.11.12-.11.13-.05.62.17 1.18.12 1.8-.03.4-.29.78-.33 1.18-.05.4.04.8.04 1.24.02.92.19 2.14.43 3.12.05.23.03.47.09.67.13.41.38.8.53 1.17.07.18-.1.21-.08.35.03.15.26.14.29.3.01.07.12.19.17.32.18.51.16 1.05.34 1.54.06.19.23.34.32.52.2.41.31.78.53 1.18.06.1.1.17.17.32.02.04 0 .2.03.22.01 0 .12-.03.12-.02.15.38.16.83.29 1.21.04.12.08.24.2.54.01.02.12 0 .14.09.05.27.04.46.21.65.1.1.07.45.2.54.01.01.12-.03.12-.02.1.17.17.45.33.63.13.14.27.78.41 1.19.02.08-.01.4.06.44.01.01.12-.03.12-.02.17.38.28.85.44 1.42.17.6.31 1.1.6 1.62.01.03.1.02.14.09.14.34.2.54.38.97.05.11.35.37.46.62.13.3.15.68.26.99.11.29.25.6.37.86.07.17.14.49.34.64.16.11.04.43.2.54.1.07.09.07.15.21.07.17.24.77.41 1.19.12.3.38.59.49.84.03.06-.1.15-.09.24.01.09.18.28.3.41.1.11.08.46.2.54.01.01.12-.03.12-.02.19.42.44.93.34 1.54.15.13.23.37.32.52.19.32.34.68.53 1.18 0-.01.11.04.14.09.12.27.02.46.21.65.2.21.26.67.4 1.08-.01-.01.12.05.14.1.13.32.16.75.27 1.09.11.32.29.61.38.97.03.11.01.23.05.33.15.41.37.77.53 1.18.19.46.39.99.57 1.4.1.23-.09.31-.06.46 0-.02.12.03.14.09.06.29.07.54.23.76.03.04.1 0 .14.1.03.06 0 .16.03.22.11.21.25.34.32.52.23.59.25 1.32.51 1.86.02.04 0 .2.03.22.2.11.2.32.34.64.17.4.4.79.54 1.17.28.82.23 1.62.49 2.66.08.32.13.51.26.99 0 0 .46.79.26.99-.13.12.05.33-.06.46-.14.17-.04.11.06.45.11.39.12.81.05 1.24-.01.03-.12.02-.11.13 0 .04.07.31.05.33-.01.01-.12.01-.12.02-.03.42.1.86.05 1.24 0 0-.1.06-.11.13-.03.24.02.25-.04.57-.01.04-.12.01-.11.13.01.1-.15.27-.2.37-.14.29-.24.95-.58 1.21 0 .27-.14.45-.02.8-.55.53-.43 1.52-1.1 1.97.11.29-.01.49-.15.7-.03.04-.22-.01-.25.03-.07.1.01.25-.08.35-.12.14-.33.25-.56.42-.08.06-.27.09-.35.16-.04.04-.05.21-.09.24-.18.12-.5.22-.7.32-.03.02-.01.1-.11.13-.23.08-.31.09-.47.18-.03.01-.02.09-.11.13-.25.1-.26.05-.6.19-.24.1-.36.22-.58.31-.39.16-.79.2-1.19.39-.04.02.01.11-.11.13-.67.13-1.78.29-2.45.22-.03 0-.03-.1-.14-.09-.27.02-.38.04-.63-.03-.06-.02 0-.11-.14-.1-.23.02-.63-.22-.92-.33-.05-.02-.21.07-.24.03-.04-.03-.11-.18-.15-.2-.15-.07-.36-.07-.52-.16-.11-.06-.18-.25-.29-.3-.05-.02-.2.07-.24.03-.04-.03-.11-.19-.15-.21-.05-.02-.21.07-.25.04-.03-.03-.12-.19-.15-.21-.26-.09-.6-.03-.88-.11-.06-.01-.1-.19-.15-.2-.19-.05-.37.08-.63-.03-.11-.05-.25-.29-.43-.4-.05-.03-.2.06-.24.03-.09-.08.02-.22-.15-.2-.11.01-.29-.13-.4-.17-.09-.03-.56-.27-.67-.36-.3-.24-.56-.68-.89-1.01-.08-.08-.19-.09-.28-.19-.13-.16-.25-.31-.44-.51-.05-.06-.11.03-.14-.09-.02-.11-.39-.33-.56-.49-.08-.07-.21-.13-.28-.19-.04-.04.01-.2-.03-.22-.13-.07-.35-.25-.56-.49-.06-.07-.09-.24-.17-.32-.14-.13-.19-.07-.29-.3-.05-.11-.1-.04-.14-.1-.12-.17-.07-.23-.2-.54-.06-.14-.21-.16-.29-.3-.4-.72-.67-1.51-1.07-2.35-.01-.01-.11-.02-.14-.09-.08-.18-.4-.8-.4-1.08 0-.09-.08-.25-.05-.33.05-.15.6-.54.76-.78.03-.05-.07-.19-.03-.22.46-.46 1.21-.96 2-.84.1.01.28-.09.37-.05.04.01-.01.2.03.22.09.05.26.12.41.28.19.21.27.46.47.73.04.05.11-.02.14.09.01.06.11.15.15.21.13.19.19.4.33.63.04.07.12.06.14.09.09.15.07.28.18.43.08.12.18.11.27.19.09.08.07.22.17.32.06.06.22.13.28.19.13.15.24.33.44.5.2.18.46.44.72.7.33.34.55.7.89 1.02.18.17.34.22.55.37.05.04-.01.19.03.23.12.08.4-.05.4.17.23.04.23.35.44.51.07.05.21.28.29.3.11.03.44-.07.41.28.23-.01.13.37.31.41.36 0 .53.41.82.57.17.09.52.13.78.23.24.1.76.41 1.05.42.49.02 1.38-.37 2.18-.42.24-.01.52.07.62.03.4-.15.65-.6.97-1.04.07-.1.28-.17.34-.27.07-.12.01-.24.07-.35.04-.08.18-.18.21-.26.05-.1.2-.32.18-.47 0-.04.07-.2.09-.24.04-.08.18-.19.21-.26.05-.11.02-.21.08-.35.04-.08.18-.18.21-.25l.29-.61c.09-.2.14-.16.18-.48.01-.09.1-.11.1-.13.07-.46-.19-.95-.18-1.33 0-.01.11-.05.11-.13-.01-.14-.08-.31-.06-.45 0-.03.11-.03.11-.13-.01-.18.06-.21.08-.35-.2-.55-.49-.97-.49-1.75 0-.35.06-.43-.12-.89-.07-.18-.11-.24-.18-.43-.11-.26-.28-.5-.35-.75-.14-.48-.18-.97-.32-1.43-.25-.82-.59-1.7-.86-2.61-.15-.49-.18-.94-.32-1.43-.15-.51-.47-1.04-.59-1.62-.12-.54-.23-.93-.45-1.41-.1-.24-.06-.22-.2-.54-.03-.08-.13-.07-.14-.09-.42-.94-.75-1.97-1.16-3.02-.14-.36-.2-.75-.4-1.08-.02-.03-.1-.01-.14-.09-.1-.24-.12-.75-.27-1.1 0-.01-.11-.03-.14-.1-.09-.22-.23-.38-.34-.63-.23-.54-.64-1.27-.89-1.92-.16-.42-.2-.67-.4-1.08-.01-.02-.11-.02-.14-.1-.03-.07.01-.16-.03-.22-.04-.07-.24-.14-.28-.19-.04-.06 0-.16-.03-.22-.04-.09-.12-.07-.14-.1-.12-.25-.12-.58-.24-.88 0 0-.11-.04-.14-.1-.03-.07 0-.15-.03-.22-.1-.24-.11-.44-.25-.88-.2-.66-.62-1.6-.95-2.37-.05-.12-.12-.19-.2-.54-.02-.07 0-.16-.03-.22-.05-.12-.22-.49-.37-.86-.37-.95-.88-1.82-1.25-2.78-.11-.27-.08-.33-.21-.65-.03-.06-.14-.09-.14-.09-.18-.57-.18-1-.35-1.65-.03-.09-.13-.17-.17-.32-.12-.41-.19-.83-.43-1.3-.21-.42-.4-.54-.53-1.17-.01-.07 0-.16-.03-.22-.05-.12-.24-.5-.37-.86-.12-.33-.22-.78-.4-1.08-.02-.04.01-.2-.03-.22-.12-.07-.23-.41-.35-.75-.04-.1-.13-.16-.17-.32-.06-.22-.06-.31-.18-.43-.15-.15-.3-.8-.42-1.19-.16-.55-.18-1.1-.35-1.66-.12-.37-.4-.78-.55-1.29-.15-.48-.22-1.02-.34-1.54-.13-.54-.3-1.08-.34-1.54-.01-.17-.11-.39-.08-.56.01-.06.21-.22.21-.26.02-.14-.07-.3-.06-.45.01-.11.08-.19.08-.35-.02-.49-.27-.93-.32-1.43-.04-.36.04-.81.07-1.26.06-.79.08-1.65.15-2.52.01-.11.08-.19.08-.35-.01-.29.05-.3.04-.57 0-.23-.02-.31.06-.46.02-.04.04-.31.08-.35.06-.06.25-.24.44-.4.02-.42.25-.7.35-1.07.47-.18.8-.45 1.01-.82.36-.18.89-.3 1.16-.61.13-.15.47-.05.6-.2.01-.01-.03-.1-.02-.11.29-.14.72-.24 1.06-.37.13-.05.27-.11.47-.18.7-.23 2.66-.61 3.54-.49.25.03.79.15 1.14.18.07.01.18-.05.25-.04.11.03.19.26.29.3.15.06.36-.03.5.04.2.11.45.39.7.58.22.17.5.32.69.47.11.1.2.31.31.41.03.04.24.05.26.08.03.05-.01.18.03.22.15.13.36.18.55.38.1.11.15.29.32.52.06.08.24.14.27.19.31.49.43 1.04.7 1.49.02.04-.01.2.03.22.08.04.46.04.53.27.13.37.4.58.51.95-.01-.04-.19.09-.11.13.13.07.24.39.23.77 0 .01-.11.04-.11.13.11.2-.08.45.07.78zM118.66 29.42c.02.19.29.17.41.28.04.04-.01.2.03.22.01.01.11-.03.12-.02.03.04-.01.2.03.22.15.08.31.11.43.39.04.09 0 .51.08.56.17.1.38.71.52 1.06.01.02.12 0 .14.1.07.33.18.54.11.78.43.2.33.6.5.95.02.03.12-.01.14.09.07.34.38.91.56 1.4.04.1.01.23.05.33.04.09.12.1.15.21.18.52.21 1.02.46 1.53.01.01.11.03.14.1.07.17.09.26.18.43.06.09.23.22.3.41.23.53.3 1.16.49 1.75.08.24.28.5.35.75.09.32.04.68.14 1 0 .01.12.01.14.09.08.39.28 1 .46 1.53.18.54.38 1.08.59 1.62.01.03.12 0 .14.1.01.03 0 .08.02.11.15.24.28.94.44 1.42.09.25.26.48.35.74.11.3.13.57.25.88.01.02.12 0 .14.09.05.27.09.37.21.65.1.22.28.44.34.64.1.33.07.66.14 1 .1.48.3 1.05.47 1.64.05.16.28.47.09.67-.06.32.39.25.44.51.02.13.03.2.15.21.04.63.38 1.14.61 1.73-.02-.04-.18.09-.11.13.1.06.23.34.32.52.11.23.25.5.35.75.03.08-.01.4.06.45.01 0 .12-.03.12-.02.14.31.12.51.26.99.05.17.12.18.17.32 0 0 .26.2.17.32-.15.18-.01.15.05.34.12.41.21.91.43 1.3.01.03.1.01.14.1.09.21.05.37.21.65.03.05.26.16.27.19.1.25-.03.58.12.89.03.05.14.1.14.1.15.48.22.94.44 1.42 0 .01.11.02.14.09.09.21.06.29.18.43.09.1.1.16.17.31.06.14.29.78.41 1.19.03.12.14.23.18.43.04.18.02.39.08.56.01.01.12 0 .14.09.01.04.01.32.05.33.28.15.19.48.38.97.01.02.12 0 .14.09.01.03 0 .09.02.11.11.17.24.75.41 1.19.01.02.12 0 .14.09.06.31.1.39.23.76.1.28.14.59.24.88.01.02.12 0 .14.09.06.3.08.42.23.76.01.03.12 0 .14.1.04.18.11.18.17.32.03.08-.01.4.06.45.01.01.12-.03.12-.02.12.32.14.65.26.99.11.32.28.65.38.97.11.34.14.64.26.99.22.63.49 1.22.75 1.82.16.36.27.89.54 1.18.12.12.09.24.18.43.05.1.13.31.21.65.11.45.36 1.28.63 1.84.01.03.12-.01.14.1.06.29.14.4.23.76.04.18.01.39.08.56.12.33.34.6.51.95.07.15.12.38.2.54.02.03.12-.01.14.09.08.4.35.75.54 1.18.13.31.17.69.38.97.3-.13.18-.57.26-.83.01-.04-.06-.19-.03-.22.21-.21-.06-.54-.02-1.02.06-.64-.09-1.94-.02-2.84.04-.54.23-1.03.29-1.51.06-.58.04-1.12.01-1.71-.05-1.12-.3-2.26-.35-3.47-.02-.56.07-1.09.14-1.72.07-.61-.11-1.71-.11-2.6 0-.11.06-.27.06-.46 0-.1-.07-.23-.05-.33.14-.77-.1-2.09-.15-2.93-.01-.1.07-.27.06-.46-.02-.42-.18-.99-.21-1.56-.03-.44.08-.88.06-1.37-.02-.47-.19-.98-.2-1.45-.01-.35.11-.78.09-1.15-.04-.95-.26-1.85-.26-2.8 0-.1.08-.19.08-.35-.01-.59.11-1.4.09-2.05-.04-1.01-.26-2.02-.29-3.03 0-.09.08-.2.08-.35 0-.19-.14-.48-.11-.78.01-.1.09-.12.09-.24 0-.52-.01-1.09.05-1.48.04-.34-.08-.53 0-.91.01-.04.12-.02.11-.13-.04-.5-.11-1.37-.02-1.93.01-.04-.06-.2-.03-.22.15-.15 0-.39.01-.8 0-.1.08-.19.08-.35-.02-.84-.14-2.08-.05-3.06.02-.21.02-.48.03-.69.04-.91.12-1.76.14-2.63.01-.8-.03-1.65.04-2.39.03-.29.05-.59.12-.93.05-.2.13-.4.17-.59.04-.21 0-.45.03-.68 0-.03.11-.03.11-.13 0-.04-.07-.31-.05-.33.01-.01.12-.01.12-.02.04-.82-.21-1.6-.08-2.37 0-.03.11-.02.11-.13 0-.04-.03-.5.05-.57.01-.02.12 0 .12-.02.01-.04-.06-.19-.03-.22.01-.02.11 0 .12-.02.08-.15.09-.37.18-.48.09-.11.32-.11.33-.27.62-.2 1.14-.03 1.62 0 .12 0 .25-.06.37-.05.03 0 .02.1.14.1.17-.02.34-.08.38.06-.04.22.24.26.31.41.16.4 0 .67.03 1.13.04.5.1 1.1.11 1.69.02.78.01 1.6.45 2.32-.17.06-.04.29-.06.46-.01.13-.07.25-.06.46.03.56.15 1.06.09 1.58-.02.18-.03.36-.05.57 0 .02-.11.03-.1.13.03.41.06.81.06 1.35 0 .03.05.2.03.22-.11.1-.08.16-.07.35 0 .03.05.2.03.22-.17.16.03.29-.03.68-.01.03-.11.02-.1.13 0 .08-.09.14-.09.24-.02.55.11 1.04.1 1.57 0 .09-.06.21-.08.35-.01.07.04.15.03.22-.02.13-.04.24-.04.57 0 .04.05.2.03.23-.01.01-.12.01-.12.02-.05.41-.05.69-.09 1.14 0 .04.06.2.03.23-.16.16.01.37-.02.79-.01.18-.17.41-.17.59 0 .29.09.61.12.89.04.34-.06.16.06.45.03.06.03.16.03.22.04.79-.06 1.57-.04 2.39.01.62.12 1.16.14 1.91.01.23-.06.3-.06.46.01.45.02.8.05 1.24.01.18-.07.36-.05.57.03.23.17.29.18.43.02.22 0 .51 0 .91 0 .03.05.2.03.22-.18.18-.02.2.08.56-.01-.04-.18.08-.11.13.3.16.04.71.03 1.13-.01.18.06.37.08.56 0-.03-.19.08-.11.13.18.1.18.75.17 1.22-.01.33-.13.62-.12.93.01.76.22 1.49.18 2.25-.02.39-.19.86-.2 1.27 0 .19.08.37.08.56 0 .17-.09.22-.07.35 0-.03.13.04.13.1.03.16.1.39.08.56-.01.12-.04.32-.03.69 0 .07.04.15.03.22-.02.14-.09.63-.11 1.04-.03.86-.03 1.79-.13 2.63-.03.25.02.34-.03.69-.01.06-.11.14-.11.13 0 .19.14.17.17.32.03.18-.1.21-.08.35.05.26.22.52.23.76.01.18-.07.2-.08.35-.02.33.02.42-.01.8 0 .03.06.2.03.22-.05.05-.14.13-.09.24.01.02.24.24.17.32-.14.14-.04.24-.06.46-.04.3-.15 1.19-.13 1.72 0 .21.21.43.21.65 0-.04-.1.09-.11.13-.1.77.31 2.1.31 3.13 0 0-.11.05-.1.13.03.39.12 1.03.08 1.47-.02.2-.06.33-.06.46 0 .08.17.24.18.43 0-.01-.11.05-.11.12.03.33.01.47 0 .91 0 .03.06.2.03.22-.12.12.07.21.09.67.02.49-.04 1.44-.09 2.06-.01.09.11.38.06.44-.16.19-.02.17.06.45.26.86.19 2.09.16 2.93-.01.07.04.15.03.22-.01.06-.11.14-.11.12.01.11.15.22.15.21-.03.33-.3.38-.26.83.01.1.06.23.05.34-.04.35-.33.56-.35 1.07 0-.02.15.12.15.2 0 .02-.17.15-.09.24-.6.26-1.14-.07-1.62 0-.08.01-.13.11-.23.14-.25.08-.67.14-.96.24-.36.13-.6.41-1.07.37-.5.12-.4-.48-.59-.71-.42 0-.23-.44-.34-.63-.04-.07-.21-.08-.28-.19-.04-.06 0-.16-.03-.22-.04-.09-.11-.18-.17-.32-.04-.1-.18-.24-.3-.41-.14-.19-.18-.11-.31-.41-.11-.25-.41-1.08-.58-1.51-.03-.07-.17-.11-.15-.21.01-.03.17-.02.11-.13-.07-.12-.27-.23-.3-.41-.04-.22-.5-.08-.44-.51-.09-.5-.37-.77-.64-1.05-.2-.13-.01-.26-.06-.44-.01-.03 0-.21-.03-.22-.02-.01-.11.03-.12.02-.03-.04.01-.2-.03-.22-.14-.08-.35-.7-.52-1.07-.08-.18-.16-.41-.32-.52 0-.26-.37-.07-.41-.28-.08-.41-.1-.68-.28-1.1-.04-.11-.23-.21-.3-.41-.12-.31-.17-.62-.24-.88 0-.01-.13 0-.14-.09-.02-.12.21-.27-.06-.45-.04-.35-.35-.53-.49-.84-.13-.3-.13-.66-.26-.99-.01-.02-.12 0-.14-.09-.04-.23-.25-.47-.35-.75-.03-.08.12-.13.09-.24-.02-.08-.28-.33-.32-.52-.07-.29.05-.55.01-.8-.03-.22-.15-.45-.21-.65-.22-.75-.66-1.5-.93-2.25-.11-.31-.14-.55-.26-.99-.01-.03 0-.21-.03-.23-.32-.18-.44-1.35-.63-1.84-.07-.2-.12-.35-.2-.54-.07-.17-.11-.35-.2-.54-.06-.13-.25-.27-.31-.41-.16-.38-.24-.81-.41-1.19-.07-.17-.12-.39-.2-.54-.04-.09-.42-.05-.17-.32.03-.42-.27-.45-.24-.88-.03-.2-.18-.21-.29-.3-.57-.47-.73-1.65-1.21-2.45-.15-.25-.23-.87-.32-1.43 0 .02-.12-.03-.14-.1-.07-.35.14-.31.03-.68-.06-.2-.24-.42-.34-.64-.09-.22-.13-.45-.21-.65 0 0-.11-.03-.14-.1-.12-.28-.24-.79-.41-1.19-.05-.12-.23-.12-.28-.19-.15-.25-.13-.76-.27-1.1 0-.01-.11-.03-.14-.1-.03-.07 0-.41-.06-.45-.4-.22-.66-1.31-.89-1.92-.1-.25-.12-.5-.23-.76-.07-.18-.24-.32-.32-.52.02.04.13-.07.11-.13.01.03-.12-.06-.14-.09-.1-.17-.25-.64-.38-.97 0 0-.11-.03-.14-.09-.03-.07 0-.41-.06-.45-.19-.11-.09-.37-.23-.76-.07-.2-.24-.43-.34-.64-.36-.8-.74-1.62-.99-2.7-.03-.14-.01-.31-.06-.45-.04-.09-.12-.09-.15-.21-.12-.46-.16-.98-.32-1.43-.12-.32-.34-.62-.5-.95-.4-.84-.7-1.95-1.04-3.04-.56.05-.23.5-.24.94 0 .03.05.2.03.22-.29.29.18 1.25.25 1.79.06.54-.05 1.03-.03 1.59.02.67.11 1.43.18 2.25.01.1.06.24.05.33-.02.1-.04.42-.02.8.01.1.07.24.05.33-.13.72.04 2.18.08 3.28.04 1.39.08 2.79.08 4.19 0 .88-.05 1.77-.01 2.61.01.19.08.37.08.56-.01.31-.13.62-.12.92.02.43.13.81.17 1.23.07.7.1 1.45.06 2.26-.01.19-.04.37-.05.58-.03.64.14 1.89.12 2.7-.01.38-.1.82.06 1.36.04.12.18.21.18.43 0 .42-.09.78-.33 1.18.04.2.15.22.18.43.04.23-.09.31-.06.46.04.24.54 1.17.32 1.43-.12.15-.2.12-.2.37 0 .08.18.23.18.42 0 .1-.08.19-.08.35.01.18.08.37.08.55-.01.36-.02.27.09.67.04.13.05.3.06.44.04.75-.07 1.5-.06 2.28.01.71.17 1.46-.07 2.17.53.71.29 1.74.58 2.42.11.27-.21.22-.18.48.01.16.17.4.2.54.1.42.19 1.09.23 1.67.03.45-.07.92-.06 1.37 0 .12.01.33.06.45.03.08.15.1.15.21 0 0-.11.05-.11.13.02.27-.15.59-.11 1.04.02.18.16.18.17.32.01.09-.1.13-.09.24.02.45.02.94.06 1.35.07.66.4 1.31.28 2-.14.09-.36.24-.71.21-.11-.01-.37-.13-.75-.01-.12.04-.17.13-.35.16-.26.04-.33-.07-.5-.04-.2.03-.19.14-.35.16-.42.07-.35.21-.75-.01-.13-.07-.36-.23-.44-.51.02.08.11-.12.11-.13.01-.04-.03-.43-.06-.45-.38-.21-.28-1.82-.32-2.34-.05-.64-.15-1.19-.14-1.91 0-.04-.05-.2-.03-.23.01-.01.12-.01.12-.02-.01-1.69-.36-3.29-.48-5.27-.02-.26.06-.5.03-.68-.06-.46-.3-1.14-.34-1.54-.04-.46-.04-1.03.05-1.48.08-.45-.12-.73-.2-1.45-.05-.4.02-.78-.03-1.13-.11-.76-.35-1.38-.41-2.1-.08-.9.02-1.78.01-2.61 0-.47-.1-.9-.06-1.35 0-.03.15-.02.11-.13-.01-.03-.14.02-.14-.09 0-.2.29-.41.27-.72a4.79 4.79 0 0 1 0-1.81c.06-.33-.04-.78-.06-1.35-.01-.41-.01-.85-.08-1.47-.01-.05-.17-.59-.09-.67.14-.14.01-.03-.02-.11-.01-.04.08-.29.05-.57-.09-.9-.41-1.75-.51-2.77 0 .03.19-.08.11-.13-.23-.12-.05-.24-.09-.67-.04-.38-.09-.67-.03-1.13.01-.07.11-.13.11-.13 0-.31-.13-.67-.14-1 0-.11.07-.26.06-.46-.02-.41-.05-.88-.06-1.35-.02-.62.05-1.23 0-1.82-.04-.44-.23-.78-.29-1.21-.03-.19.06-.26.06-.46 0-.41-.09-.78-.05-1.24 0 0 .1-.07.11-.13.02-.18-.08-.37-.08-.56 0-.11.08-.19.08-.35 0-.11-.05-.22-.05-.33 0-.29.11-.58-.02-1.02-.1-.36-.09-.4-.14-1-.06-.74-.02-1.64-.32-2.34-.02-.04-.09-.42-.06-.44.01 0 .12-.02.12-.02-.1-.52-.27-.94-.32-1.43-.07-.71.05-1.31-.17-2.13-.06-.22-.17-.32-.2-.54-.04-.3.02-.58 0-.91-.13-1.96-.52-3.94-.58-6.05 0 0 .11-.06.11-.13-.02-.2-.09-.46-.11-.78-.02-.26.03-.54.01-.8-.02-.24-.17-.27-.18-.43 0 .05.1-.1.1-.13.01-.12.1-.28.08-.35 0-.01-.12-.01-.14-.09-.11-.42-.04-.79-.06-1.35-.01-.15-.06-.3-.06-.45 0-.17.08-.21.08-.35-.02-.53-.08-.86-.06-1.35.01-.16-.09-.31.08-.35 0-.13 0-.27.08-.35.08-.1.24-.07.35-.16.19-.16.3-.44.55-.53.07-.03.18 0 .24-.03.07-.04.16-.23.21-.25.35-.18.82-.18 1.05-.49.31.17.86.11 1.32.17z"/><g fill-rule="evenodd" clip-rule="evenodd" fill="#39d7c2"><path d="M177.18 114.89c.05 0 .11.12.09.12.18 0 .21-.1.38-.12.02 0 .07.14.19.12.01 0-.01-.11 0-.12.07-.1.49.11.57.12.09.01.11-.12.19-.12.05 0 .05.14.19.12.16-.03.33-.18.48-.23.13.23.58.06.76.23.22.04.11-.33.28-.35.3.25.65.4 1.04.46.17.03.22-.1.38-.12.1-.01.11.11.19.12.12.01.13-.14.29-.12.14.02.18.11.38.12.09 0 .2.02.28 0 .07-.01.09-.11.09-.12.08-.02.1.12.09.12.24 0 .52-.04.76 0 .37.06-2.42-.09-2.09-.12l2.88.12c.92-.83 1.89-1.62 2.92-2.36-.11-.04-.22-.07-.29-.08-.01 0 0 .14-.1.12-.04-.01.02-.13-.09-.12-.13.02-.13.12-.29.12.02 0-.05-.1-.09-.12-.54-.16-1.12.12-1.42.12-.12 0-.14-.11-.29-.12-.07 0-.09-.11-.09-.11-.14-.03-.2.1-.28.11-.1.02-.07-.11-.09-.11-.09-.03-.12.11-.19.11-.52.04-.93-.1-1.23-.11-.18-.01-.4.12-.57.11.03 0-.06-.1-.09-.11-.38-.12-.92 0-1.33 0-.75-.01-1.28-.18-1.61.11-.17-.18-.58-.24-.76-.23-.07.01-.09.12-.09.12-.05.01-.22-.11-.19-.12-.23.08-.18.33-.38.23a.69.69 0 0 0-.09-.23c-.04-.06-.13.11-.1.12-.28-.08-.54-.16-.85-.12-.32.05-.36.06-.57 0-.38-.11-.71.09-.95-.12-.01.14-.03.28-.19.23-.28.03-.29-.26-.57-.23-.12.14-.23.29-.38.35.03-.01-.17-.15-.29-.11-.06.02-.1.33-.28.23-.01-.2.02-.36.09-.47-.2.19-.46-.04-.66 0-.27.06-.39.29-.67.35-.01-.18.01-.4-.19-.35-.16.01-.32-.01-.47 0-.5.03-.47.04-.85 0-.26-.02-.85.01-.95 0-.05 0-.12-.12-.1-.12-.24 0-.44.13-.66.12-.18-.01-.21-.1-.38-.12-.62-.08-1.29.09-1.9 0-.13-.02-.13-.11-.28-.12-.8-.04-1.89.04-2.37.12-.12.02-.26-.02-.38 0-.17.02-.22.11-.38.12-.09 0-.07-.11-.09-.12-.09-.03-.12.12-.19.12-.15-.02-.29-.12-.47-.12-.3.01-.61.1-.95.12-.16.01-.4-.02-.57 0-.17.02-.21.11-.38.12-.12 0-.19-.1-.38-.12-.26-.02-.69.02-.85 0-.19-.02-.21-.11-.28 0-.02.03-.16-.02-.19 0-.27.13-.28.06-.47 0-.4-.11-.68.12-.95.12-.14 0-.34-.11-.47-.12a1.61 1.61 0 0 0-.38 0c-.11.02-.23.12-.28.12-.13 0-.18-.12-.38-.12-.18 0-.21.13-.38.12-.12-.01-.13-.13-.28-.12-.12.01-.2.08-.38.12-.18.04-.35-.04-.47.12-.01-.17-.16-.08-.29-.12-.16-.04-.22-.1-.38-.12-.1-.01-.11.11-.19.12-.12.01-.13-.13-.28-.12-.13.01-.19.09-.38.12-.23.03-.52.04-.76 0-.17-.03-.22-.12-.38-.12-.13 0-.17.13-.38.12-.15-.01-.32-.12-.47-.12-.18.01-.22.09-.38.12-.59.11-.9.08-1.33 0-.09-.03-.06.07-.09.12-.07.11-.04.07-.19.11-.1.03-.16-.11-.19-.11-.12-.01-.13.13-.28.11-.08 0-.07-.11-.09-.11-.09-.03-.12.14-.19.11-.13-.04-.16-.18-.28-.23-.16.19-.35.35-.67.35-.24.15-.41-.19-.66-.23.05.01-.07.11-.09.11-.18.06-.28-.08-.38-.11-.46-.13-.68.15-.95.23.03-.31-.2-.3-.38-.35-.17.1-.24.18-.47.23.02 0-.03-.12-.09-.11v.11c-.01.02-.16 0-.19 0-.26-.01-.54-.18-.85-.23.01.19-.18.05-.29.12-.08.05-.09.31-.28.23-.01-.15-.12-.16-.1-.35-.18-.01-.21.12-.38.12-.16 0-.24-.16-.38-.12-.39.13-.2.5-.47.12-.23-.32-.44.18-.66.11-.14-.07-.08-.21-.29-.23-.11-.01-.27.09-.47.12-.36.04-.89-.05-1.23 0-.14.02-.18.1-.38.11-.2.01-.43-.15-.57-.11-.14.03-.16.19-.28.23-.13-.23-.58-.06-.76-.23-.01.14-.03.28-.19.23-.17.13-.17-.19-.38-.23.05.01-.07.11-.1.11-.41.13-.38-.28-.57 0-.02.03-.16 0-.19 0-.53.08-1.05-.14-1.33-.11-.14.01-.2.09-.29.11-.11.03-.27-.05-.38 0-.11.06-.1.17-.19.23-.1.03-.06-.07-.09-.12-.14-.22-1.34-.18-1.71-.12-.38.07-.72.41-.47 0-.22.03-.41.2-.67.23-.09.01-.12-.1-.19-.12-.08-.02-.2 0-.28 0-.12 0-.12.06-.19.12-.31.24-.05-.18-.38-.12-.01.13.02.33-.09.35-.09-.04-.13-.15-.19-.23-.08-.1-.13-.23-.29-.23-.57.22-1.17.17-1.61.12-.4-.05-.81.13-1.14.12-.09 0-.07-.11-.09-.12-.09-.03-.12.13-.19.12-.15-.04-.26-.2-.38-.23-.05.14-.1.27-.19.35-.21-.17-.34-.13-.57-.12-.34.02-.37.16-.47 0-.09-.13-.41 0-.48-.12-.18.05-.17.33-.47.23-.28-.34-.56-.07-1.04-.23-.12 0-.09.2-.19.23 0-.09-.01-.12-.1-.12-.04 0-.13.11-.09.12-.12-.01-.13-.14-.29-.12.02 0-.05.1-.09.12-.09.03-.2-.03-.28 0-.13-.02-.29.47-.38.12.16.03.26-.16.1-.23-.02.2-.11-.01-.19 0-.04 0-.12.12-.09.12-.16-.01-.33-.18-.57-.12-.16 0-.05.32-.19.35-.1-.04-.12-.16-.19-.23-.08-.08-.2-.15-.29-.23-.58.11-1.08.24-1.61.12-.24.35-.42.04-.76.23-.01-.14-.03-.28-.19-.23-.36.13-.98-.1-1.33 0-.16.04.04.23-.09.23.01 0-.09-.23-.1-.23-.28-.17-.5.12-.66.12-.12 0-.19-.11-.38-.12-.05 0-.14-.02-.19 0-.03.01-.13.12-.09.12-.17.02-.22-.16-.38-.12-.15.04-.23.17-.38.23-.14-.22-.62-.01-.76-.23-.01.14.02.33-.09.35 0-.16-.05-.25-.1-.35-.29.06-.43.28-.57.12-.04-.05-.32 0-.38 0-.69-.05-1.59-.01-1.99.12-.14.04-.17.11-.38.12-.16 0-.39-.13-.57-.12-.19.01-.4.21-.57.23-.16.02-.32-.11-.47-.12-.17 0-.22.08-.38.12-.16.04-.35-.04-.47.12-.01-.25-.24-.25-.47-.24-.35-.04-.25.47-.67.35-.48-.41-.87-.28-1.33-.23-.1.01-.11-.12-.19-.12.03 0-.06.1-.1.12-.3.09-.25-.12-.47-.12-.13.01-.2.11-.28.12-.18.02-.21-.14-.38-.12-.01 0-.13.21-.19.24.02-.01-.03-.14-.09-.12-.02.01-.01.1-.1.12-.12.02-.23-.14-.28-.12-.11.03-.06.32-.19.12-.06-.09-.27.12-.28.11-.03-.01 0-.11-.1-.11a9.63 9.63 0 0 0-.76 0c-.14 0-.2.1-.28.11-.1.01-.11-.11-.19-.11-.12-.01-.13.12-.28.11-.17-.01-.22-.14-.38-.11-.14.02-.16.2-.28.23-.19 0-.12-.32-.38-.23-.31.39-.77-.05-1.14.35-.18-.09-.35-.19-.57-.23-.24.4-.5.07-.95.12-.2.14-.53.13-.66.35-.17-.26-.57-.23-.85-.35-.38.12-.64.23-.85.35-.01-.16-.15-.09-.28-.12-.45-.08-.36-.05-.76 0-.2.02-.48-.02-.76 0-.18.01-.07.38-.28.35-.25-.05-.29-.35-.57-.35-.26.11-.69-.07-1.14 0-.12.02-.13.11-.28.12-.23.01-.49.04-.67-.12-.1.11-.03.43-.29.35-.25-.05-.28-.35-.57-.35-.26-.08-.19.23-.38.23-.1-.23-.24 0-.38 0-.15 0-.32-.1-.47-.11-.15-.01-.1.14-.19 0-.05-.07-.12.11-.09.11-.15 0-.38-.14-.48-.11-.08.02-.17.44-.38.23 0-.12.08-.14.09-.23-.19-.03-.27.18-.38.23-.08.04-.14-.15-.19-.12-.05.03.02.28-.09.23-.14-.13-.39-.14-.48-.35-.32.07-.63.19-.95.23-.3.03-.23-.23-.38 0-.12.18-.47-.12-.48-.12-.04.02.02.28-.09.23-.09.08-.09-.23-.1-.23-.12-.03-.32.12-.47.12-.16 0-.35-.13-.48-.12-.09.01-.12.12-.19.12-.08 0-.14-.13-.19-.12-.02.01-.06.22-.09.23-.27.16-.52-.09-.66-.11-.09-.01-.07.11-.1.11-.08.02-.09-.11-.09-.11-.39-.03-.53.09-.76.11-.12.01-.13-.12-.28-.11-.13.01-.18.11-.38.11-.16 0-.31-.12-.38-.11.02 0-.05.1-.09.11-.27.08-.27.09-.47.12-.12.01-.13-.12-.28-.12.02 0-.05.1-.1.12-.25.08-.46-.04-.66 0-.17.03-.22.11-.38.12-.11 0-.3-.23-.38 0 .05 0 .11.09 0 .12-.09 0-.11.09-.19.12-.34-.11-.67-.21-1.04-.23-.18-.01-.21.13-.38.12-.13-.01-.13-.12-.29-.12-.11.01-.14.09-.28.12-.16.03-.32-.03-.48 0-.17.03-.22.12-.38.12-.23 0-.43-.14-.66-.12-.22.02-.46.13-.67.23-.02-.16-.21-.13-.29-.23-.1.23-.3.09-.47.12-.13.02-.35.12-.47.12-.14 0-.17-.16-.38-.12-.14.03-.16.19-.28.23-.29.09-.43-.12-.66-.12-.12 0-.12.06-.19.12-.25.2-.15-.03-.28-.12-.12-.07-.25.06-.29.12-.05.07-.12-.11-.1-.12-.16.01-.36.08-.57.12-.12.02-.26-.03-.38 0s-.13.12-.29.12c-.13 0-.17-.13-.38-.12-.15.01-.3.23-.47.12-.13 0-.09.2-.19.23-.19-.23-.25-.03-.38.11-.02-.16-.16-.19-.19-.35-.5.15-.67-.03-1.33 0-.18.01-.07.38-.28.35-.13.03-.17-.26-.28-.23-.04.01.02.12-.09.12-.15-.01-.33.05-.47 0-.02-.01-.14-.12-.1-.12-.16 0-.23.16-.38.12-.01 0-.16-.1-.1-.12-.23.05-.28.24-.38.23-.02 0-.02-.38-.19-.23-.02.09-.08.13-.19.12-.26-.05-.09.43-.28.46v-.46c-.14-.06-.49.14-.48-.12-.33.01-.42.33-.76.35-.15-.05-.24-.04-.38-.12-.3-.17-.19-.28-.38 0-.04.07-.13-.11-.1-.11-.39.08-.37.05-.57 0-.39-.1-.39.18-.57.24-.35.1-.5-.1-.76-.12-.18-.01-.21.12-.38.12-.1 0-.11-.1-.19-.12-.55-.14-.94.27-1.23 0-.01.49-.06.03-.19 0 0 .16-.04.26-.1.35-.11-.01-.15.17-.19 0-.03-.23.13-.23.19-.35-.47-.2-.64.12-1.14-.11-.01.3-.14.45-.38.46-.01-.22-.31-.08-.28-.35-.4.24-.59-.32-1.14-.23 0-.2-.07-.3-.19-.35-.09.2-.3.26-.57.23-.02.17.03.43-.09.47-.27-.03-.48.03-.57.23.12.02.22.03.19.23-.02.14-.17.05-.19.11-.05.15.08.27.09.35.03.18-.04.4 0 .58.04.19.21.2.28.35.04.08-.03.26 0 .35.02.07.21.1.19.23.07.03.19 0 .19.11.29.08.35-.12.57-.11.14.11.21.2.38.23.18.03.29-.12.38-.12-.03 0 .06.11.09.12.47.14.64.04.95 0 .14-.02.21.12.29.11.02 0 .15-.23.28-.11.18-.13.2-.45.38-.59.12-.03.12.2.19.23.13.06.35-.08.47 0 .16.11.02.5.28.35.35.12.31-.25.47-.35.09.48.46.09.66.12.16.02.26.24.38.23.07-.01.09-.12.09-.12.14-.03.2.11.28.12.09 0 .11-.13.19-.12.01 0 .16.23.19.23.3.05.25-.31.47-.35-.15.41.32.07.28.35.32-.05.56-.21.85-.23.1 0 .07.11.09.12.09.03.12-.13.19-.12.1.02.11.1.19.12.35.1.57-.07.76-.12.09-.02.19.02.28 0 .07-.01.09-.11.09-.11.08-.02.1.11.09.11.09 0 .11-.11.19-.11-.03 0 .06.1.09.11.3.09.48-.12.66-.11.07 0 .09.11.09.11.08.02.19-.11.19-.11.24.02.36.12.57.11-.01-.14.11-.06.19-.11.09-.07.11-.16.19-.23.02.21.16.27.38.23.15-.01.07-.3.29-.23.22.09.48.1.66.23.08-.23.35-.11.47-.12.22-.01.45.03.67 0 .15-.03.58-.24.66-.23.08 0 .25.61.28.12-.05 0-.11-.09 0-.12.22.16.26.3.38.12.05-.08.11.12.1.12.32.06.38-.06.57-.12.42-.12.4-.03.76 0 .75.07 1.76.04 2.18-.12.19-.07.23-.1.38-.23.39.56.96-.3 1.33.23.25-.27.71-.33.85-.12.05.07.12-.11.1-.11.22.03.3.11.47.11.33 0 .22-.31.38-.11.18.22.22.05.38 0 .22-.07.56.14.57-.12-.15.01-.07-.34 0-.12 0 .12.08.14.09.23.27.01.58-.21.85-.23.11-.01.19.11.38.12.18 0 .21-.12.38-.12.13 0 .18.12.38.12.14 0 .34-.11.47-.12.33-.02.47.16.57 0 .02-.02.16 0 .19 0 .47-.07.91-.08 1.14-.12.23-.05.44.03.66 0 .1-.01.11-.09.19-.12.42-.12.65.11.95.12.28.01.58-.28.85 0 0-.19.26-.07.28-.23.19 0 .12-.32.38-.23-.26.32.14.11.19.35.21-.03.37.04.57 0 .19-.03.33-.22.47-.23-.02 0 .12.1.19.12.44.06.64-.18.76 0 .02.02.16-.01.19 0 .52.09 1.08-.08 1.33-.12.12-.02.25.02.38 0 .17-.02.21-.11.38-.12.11 0 .2.1.38.12.17.01.37 0 .57 0 .09 0 .12-.12.19-.12-.03 0 .06.1.1.12.27.08.29-.08.47-.12.74-.14 1.76-.02 2.28-.12.38-.08.39-.05.57 0 .75.23 1.54-.33 1.8.12.19-.27.69-.17.85-.47.05.14.1.27.19.35.2-.33.46.02.66 0 .15-.01.32-.2.47-.23.1-.02.11.12.19.12-.03 0 .06-.11.09-.12.22-.07.4.03.57 0 .11-.02.22-.12.28-.12.13 0 .17.14.38.12.12-.01.13-.12.28-.12.11.01.14.1.28.12.12.02.26.01.38 0 .26-.02.61-.22.76-.23-.01 0 .02.11.09.11.05 0 .13-.11.1-.11.14.01.17.13.38.11.13-.01.19-.09.38-.11.21-.03.41.04.57 0 .22-.05.25-.23.38-.23 0 0 .08.23.09.23.06.03.21-.11.19-.12.33.14.21.37.38.12.06-.08.52 0 .57 0 .45-.02.73-.1.95-.12.63-.05 1.03.06 1.33-.23.36.4.76.16 1.14.12.43-.05 1 .04 1.33 0 .33-.04.3-.12.38 0 .02.03.25 0 .29 0 .05 0 .12.12.09.12.18 0 .22-.09.38-.12.46-.07.73.08 1.04.12.02-.09.08-.14.19-.12.01-.14-.02-.33.1-.35v.35c.39-.1.55-.1.95 0 .02-.14-.02-.33.09-.35-.09.46.5.09.57.35.27-.47.75-.01 1.14-.23.16 0 .05-.33.19-.35.27.02.4.21.67.23.23-.01.37.02.57 0 .33-.03.4-.11.48 0 .06.09.3.04.38.12.01-.19.23-.09.38-.12.17-.03.22-.1.38-.11.18-.01.21.13.38.11.12-.01.13-.12.28-.11.13 0 .19.1.38.11.16.02.32-.01.47 0 .36.04.37.15.48 0 .02-.03.16.02.19 0 .67-.31 1.37.24 1.8-.23.18.22.47.12.66.12.11 0 .14-.04.19-.12.05-.07.13.11.1.12.43-.06.5-.04.85 0 .16.02.32-.02.47 0 .34.04.3.1.38 0 .21-.26.35-.03.47 0 .34.09.69-.11.76-.12.13-.01.18.14.38.12.12-.02.13-.12.28-.12.12 0 .19.09.38.12.16.02.32-.01.47 0 .36.03.39.05.57 0 .23-.07.39.05.57 0 .04-.2-.14-.3 0-.35.2.21.51.31.85.35.19.03.19-.16.28-.23.29.54.86.03 1.33.35.02-.17-.03-.43.09-.46.11-.03.14.08.19.12.09.08.04.07.19.12.31.08.21-.25.38 0 .02.03.25 0 .28 0 .06 0 .11.12.09.12.18 0 .35-.09.57-.12.56-.08.66-.03 1.04 0 .79.07 1.92.11 2.66 0 .12-.02.13-.11.28-.12.36-.03.79.05 1.14 0 .17-.03.22-.12.38-.12.09 0 .11.12.19.12s.13-.13.19-.12c.13.04.16.18.28.23.02-.24.42-.03.48-.23.26.28.58.25.85.23.07 0 .09-.11.09-.12.18-.04.39.05.57 0 .25-.08.26-.26.38-.12.16.2.59-.12.66-.12.12 0 .13.12.28.12.13 0 .19-.1.38-.12.05 0 .14-.02.19 0 .26.08.09.01.38 0 .3 0 .67.05.85 0 .13-.03.25-.33.38-.23.16.1.3.17.38.23 0 0 .14.13.09.12.11.03.15-.11.19-.12.14-.03.2.11.28.12.55.03.73-.03 1.04-.12.36-.1.5-.09.76 0 .36.13.73.09 1.14.12.29.02.25.19.38 0 .04-.07.12.12.09.12.18-.01.29-.12.47-.12.14 0 .31.12.47.12.1 0 .11-.1.19-.12.39-.11.62.09.85.12.16.01.15-.2.28 0 .02.02.16-.01.19 0 .42.06.65-.2.95-.23.09-.01.12.1.19.12.3.08.41-.06.57-.12.33-.12.38-.05.57 0 .09.02.19-.02.28 0 .36.07.57.15.76 0 .09-.07.03-.09.19-.12.76-.14 1.73.49 2.47-.12.12.4.72.14.85.35.04.07.23-.26.28-.23.06.16.2.22.38.23.13-.3.2-.11.28-.23.06-.09.3-.04.38-.12.03.48.34.09.57.12.12.02.13.12.28.12-.02 0 .05-.1.1-.12.31-.1.36.12.57.12.12 0 .19-.1.38-.12.17-.02.45.04.66 0 .32-.05.36-.05.57 0 .36.1.51-.12.76-.12.18 0 .37.1.57.12.15.01.3-.12.48-.12.1 0 .11.09.19.12.23.06.5.03.66 0 .35-.05.31-.04.66 0 .38.04.88.04 1.14 0 .11-.02.22-.12.28-.12.14 0 .17.14.38.12.11-.01.15-.08.28-.12.06-.01.13.02.19 0 .05-.01.1-.12.09-.12.13-.03.22.13.28.12.06-.01.11-.34.29-.23.47.28 1.48.19 2.18.23.05 0 .12.12.09.12.14 0 .33-.13.47-.12.2.02.29.17.47.12.02-.13.15-.13.29-.12.13 0 .08-.2.19-.23.23.15.57.15.76.35.22-.28.49-.01.76 0 .23.01.43-.1.66-.12.1-.01.06.1.09.12.09.04.18-.12.19-.12.22.02.29.12.48.12.18 0 .21-.13.38-.12.13.01.13.13.28.12.1-.01.11-.1.19-.12.34-.09.47.08.67.12.12.02.25-.02.38 0 .17.03.21.11.38.12.14 0 .34-.1.48-.12.39-.05.92-.03 1.13-.02zm-90.51 1.75c-.07-.4.33-.42.48-.23-.02.25-.24.25-.48.23z"/><path d="M130.12 113.38v-.23c-.17-.39-.46.35 0 .23zM107.16 113.85c-.09 0-.11-.09-.19-.12-.27.23.19.37.19.12zM102.7 114.08h.28c.01-.21-.09-.28-.28-.23v.23zM94.45 114.2c.15-.01.33.01.28-.23h-.19c0 .11-.07.13-.09.23zM137.33 114.66c.15-.01.33.01.28-.23h-.19c.01.12-.07.14-.09.23zM137.62 115.13c.1 0 .11.09.19.12-.01-.18.01-.4-.19-.35v.23zM138.28 115.01c.32.36.29-.43 0 0zM116.36 115.36h.29c.01-.21-.09-.27-.29-.23v.23zM110.58 115.59h.19c.15-.28-.32-.34-.28-.11.05 0 .1.01.09.11zM106.78 115.59h-.28c-.07.03-.19.01-.19.12.14-.06.49.13.47-.12zM108.21 115.83h.28c.01-.21-.09-.27-.28-.23v.23zM91.22 116.29c0-.07.01-.14.09-.11-.01-.14-.03-.28-.19-.23.02.13-.01.32.1.34zM60.29 116.41c.15-.01.33.01.28-.23h-.19c.01.11-.07.13-.09.23zM93.41 116.41c.1 0 .11.09.19.12-.01-.18.01-.4-.19-.35v.23zM70.45 117.22c.16.01.24-.09.29-.23-.16.01-.34-.01-.29.23zM68.27 117.45c.15-.01.33.02.28-.23h-.19c0 .12-.08.14-.09.23zM54.22 117.8c.28.17.28-.52 0-.35v.35zM55.93 117.69c-.12 0-.13-.15-.28-.11-.15.28.32.33.28.11zM57.83 117.57c-.07-.07-.17.09-.19.11-.32.4.41.11.19-.11zM59.35 117.92h.28c.01-.21-.09-.27-.28-.23v.23zM53.94 118.39c.02-.17.16-.2.19-.35-.2-.1-.43.3-.19.35z"/></g><g fill-rule="evenodd" clip-rule="evenodd" fill="#39d7c2"><path d="M261.88 115.81c-.04 0-.08-.13-.07-.13-.12 0-.15.11-.27.13-.02 0-.05-.15-.13-.13v.13c-.05.1-.34-.12-.4-.13-.07-.01-.08.13-.13.13-.03 0-.03-.15-.13-.13-.11.04-.23.19-.33.25-.09-.24-.41-.07-.53-.25-.15-.04-.07.36-.2.38-.21-.27-.45-.43-.73-.5-.12-.03-.15.11-.26.12-.07.01-.08-.12-.13-.12-.08-.01-.09.14-.2.12-.1-.02-.12-.12-.26-.12-.06 0-.14-.02-.2 0-.05.01-.06.12-.07.12-.05.02-.07-.12-.07-.12-.17 0-.36.05-.53 0-.26-.06-.29-.03-.53 0h-.02c-.64.88-1.32 1.72-2.04 2.51.08.04.15.08.21.09.01 0 0-.15.07-.13.03.01-.01.14.06.13.09-.02.09-.13.2-.13-.01 0 .04.11.07.13.38.17.79-.13.99-.13.08 0 .09.12.2.13.05 0 .06.12.07.12.1.03.14-.11.2-.12.07-.02.05.11.07.12.06.03.08-.12.13-.12.37-.05.65.11.86.12.13.01.28-.12.4-.12-.02 0 .04.11.07.12.27.12.64 0 .93 0 .52.01.89.18 1.12-.12.12.19.4.26.53.25.05 0 .06-.12.07-.12.04-.01.15.12.13.12.16-.08.12-.36.26-.25.01.1.04.17.07.25.03.06.09-.11.07-.12.2.08.38.17.6.12.23-.05.25-.06.4 0 .26.11.5-.09.66.12.01-.15.02-.29.13-.25.19-.03.2.28.4.25.09-.15.16-.31.26-.37-.02.01.12.16.2.12.04-.02.07-.35.2-.25.01.21-.01.39-.06.5.14-.2.32.04.46 0 .19-.06.27-.31.46-.37.01.19-.01.43.13.37.11-.01.22.01.33 0 .35-.03.33-.04.6 0 .18.02.59-.01.66 0 .03 0 .08.12.07.12.17 0 .3-.14.46-.12.12.01.15.1.26.12.43.08.9-.09 1.33 0 .08.02.09.11.2.13.56.05 1.32-.04 1.66-.13.09-.02.18.02.27 0 .12-.02.15-.12.27-.12.06 0 .05.12.07.12.06.03.08-.13.13-.12.1.02.2.13.33.12.21-.01.43-.1.66-.12.12-.01.28.02.4 0s.15-.12.26-.12c.08 0 .14.11.27.12.18.02.48-.02.59 0 .13.02.15.12.2 0 .01-.03.11.02.13 0 .19-.13.2-.06.33 0 .28.12.47-.12.66-.12.1 0 .24.11.33.12.08.01.18.02.26 0 .08-.02.16-.12.2-.12.09 0 .12.12.26.12.12 0 .15-.14.27-.12.09.01.09.14.2.12.08-.01.14-.09.27-.12.12-.04.24.04.33-.12.01.18.11.09.2.12.11.04.15.11.27.12.07.01.08-.12.13-.12.08-.01.09.14.2.12.09-.01.13-.1.26-.12.16-.03.36-.04.53 0 .12.03.15.12.27.12.09 0 .12-.13.26-.12.11.01.23.13.33.12.12-.01.15-.09.26-.12.41-.11.63-.09.93 0 .07.03.04-.07.07-.12.05-.12.03-.08.13-.12.07-.03.11.12.13.12.08.02.09-.14.2-.12.06 0 .05.11.07.12.06.03.09-.14.13-.12.09.05.12.19.2.25.12-.2.24-.37.47-.37.17-.16.28.2.46.25-.03-.01.05-.12.07-.12.12-.06.2.09.26.12.32.14.47-.16.66-.25-.02.33.14.32.27.37.12-.1.17-.2.33-.25-.01 0 .02.13.07.12v-.12c.01-.02.12 0 .13 0 .18.01.38.19.6.25 0-.21.13-.06.2-.12.05-.05.06-.33.2-.25 0 .16.08.17.06.37.13.01.15-.12.27-.12.11 0 .16.17.26.12.27-.14.14-.54.33-.12.16.34.3-.19.46-.12.1.08.06.22.2.25.07.01.19-.1.33-.12.25-.04.62.05.86 0 .1-.02.13-.11.27-.12.14-.02.3.16.4.12.09-.03.11-.2.2-.25.09.24.41.07.53.25.01-.15.02-.29.13-.25.12-.14.12.2.27.25-.04-.01.05-.12.07-.12.29-.13.27.29.4 0 .01-.03.11 0 .13 0 .37-.08.73.15.93.12.1-.01.14-.1.2-.12.08-.03.19.05.27 0 .08-.06.07-.18.13-.25.07-.03.04.07.07.12.1.23.93.19 1.19.13.26-.07.5-.44.33 0 .16-.03.29-.21.46-.25.06-.01.08.1.13.12.06.02.14.01.2 0 .09 0 .09-.07.13-.12.21-.26.04.19.27.12.01-.14-.01-.35.06-.37.07.04.09.16.13.25.05.1.09.24.2.25.4-.23.81-.18 1.13-.13.28.05.57-.14.8-.12.06 0 .05.11.07.12.06.03.08-.14.13-.12.11.04.18.21.27.25.03-.14.07-.28.13-.37.15.18.24.14.4.13.24-.02.26-.18.33 0 .06.14.29 0 .33.12.13-.05.12-.35.33-.25.2.36.39.07.73.25.09 0 .06-.22.13-.25 0 .09.01.13.07.13.03 0 .09-.13.06-.13.09.01.09.15.2.13-.01 0 .04-.11.06-.13.06-.04.14.03.2 0 .09.02.2-.5.27-.12-.11-.04-.18.17-.07.25.01-.22.08 0 .13 0 .03-.01.09-.13.07-.13.11.01.23.19.4.13.11-.01.04-.35.13-.37.07.04.08.16.13.25s.14.16.2.25c.41-.11.75-.26 1.13-.12.17-.38.3-.05.53-.25.01.15.02.29.13.25.25-.14.69.11.93 0 .11-.05-.03-.25.07-.25 0 0 .06.24.07.25.2.17.35-.13.46-.13.08 0 .13.11.26.13.04 0 .1.01.13 0 .02-.01.09-.13.06-.13.12-.02.15.17.27.13.1-.04.16-.19.26-.25.1.23.43.01.53.25.01-.15-.01-.36.07-.37 0 .17.03.27.07.37.2-.07.3-.31.4-.13.03.05.22 0 .27 0 .48.05 1.11.01 1.39-.12.1-.05.12-.12.27-.13.11 0 .27.13.4.13.13-.02.28-.23.4-.25.11-.02.23.12.33.12.12 0 .16-.08.26-.12.11-.04.24.04.33-.13.01.27.17.27.33.25.25.04.17-.5.46-.37.33.43.6.3.93.25.07-.02.08.12.13.12-.02 0 .04-.11.07-.12.21-.1.17.13.33.12.09 0 .14-.12.2-.12.12-.02.15.15.27.12.01 0 .09-.22.13-.25-.01.01.02.14.07.13.02-.01.01-.11.07-.13.08-.03.16.14.2.13.08-.04.04-.34.13-.13.04.09.19-.13.2-.12.02.01 0 .12.07.12.16.02.37.01.53 0 .09-.01.14-.11.2-.12.07-.01.08.12.13.12.08.01.09-.13.2-.12.12.01.15.15.26.12.09-.02.11-.21.2-.25.13 0 .08.34.27.25.21-.42.54.05.79-.37.12.1.24.21.4.25.17-.42.35-.08.66-.12.14-.15.37-.13.46-.37.12.28.4.25.6.37.26-.13.45-.25.6-.37.01.17.11.1.2.13.31.09.25.05.53 0 .14-.03.34.02.53 0 .12-.01.05-.41.2-.37.17.05.2.37.4.37.18-.12.48.07.79 0 .09-.02.09-.12.2-.13.16-.01.35-.04.46.13.07-.12.02-.46.2-.37.17.05.2.37.4.37.18.09.13-.24.26-.25.07.25.17 0 .27 0 .11 0 .22.11.33.12.1.02.07-.15.13 0 .03.08.08-.12.07-.12.11 0 .27.15.33.12.05-.02.12-.46.26-.25 0 .12-.05.15-.07.25.14.03.19-.19.27-.25.05-.04.09.16.13.12.03-.03-.01-.29.07-.25.1.15.27.15.33.37.22-.07.44-.2.66-.25.21-.04.16.24.27 0 .08-.19.33.13.33.12.03-.02-.01-.3.07-.25.06-.09.06.25.07.25.08.03.22-.13.33-.12.11.01.25.13.33.12.06-.01.08-.12.13-.12s.1.14.13.12c.01 0 .04-.23.07-.25.19-.17.36.1.46.12.07.01.05-.12.07-.12.06-.02.06.12.06.12.27.04.37-.09.53-.12.08-.01.09.13.2.12.09-.01.12-.12.26-.12.11 0 .21.13.27.12-.01 0 .03-.11.07-.12.19-.09.19-.09.33-.12.08-.01.09.13.2.12-.02 0 .04-.11.07-.12.17-.08.32.04.46 0 .12-.03.15-.12.27-.12.07 0 .21.24.26 0-.04 0-.08-.1 0-.12.06 0 .08-.1.13-.12.23.11.47.23.73.25.12.01.15-.14.26-.12.09.01.09.14.2.12.08-.01.1-.09.2-.12.11-.03.22.03.33 0 .12-.03.15-.13.26-.12.16 0 .3.15.46.12.15-.03.32-.14.47-.25.02.18.14.14.2.25.08-.25.21-.09.33-.12.09-.02.25-.13.33-.13.1.01.12.17.27.13.1-.03.11-.21.2-.25.21-.1.3.13.47.12.08 0 .08-.07.13-.12.18-.22.1.03.2.12.08.08.17-.06.2-.12.03-.08.08.12.07.12.11-.01.25-.09.4-.12.09-.02.18.03.27 0 .08-.03.09-.13.2-.13.09.01.12.14.26.13.1-.01.21-.24.33-.13.09 0 .06-.21.13-.25.14.25.18.03.27-.12.02.18.11.21.13.37.35-.16.47.03.93 0 .13-.01.05-.41.2-.37.09-.02.12.28.2.25.03-.01-.01-.13.07-.13.1.01.23-.05.33 0 .01.01.1.13.07.13.11 0 .16-.17.27-.13 0 0 .11.11.07.13.16-.05.19-.25.26-.25.01 0 .02.41.13.25.01-.1.06-.14.13-.13.18.05.06-.46.2-.5v.5c.1.07.34-.14.33.13.23-.02.3-.35.53-.37.11.05.17.04.27.12.21.19.14.3.26 0 .03-.07.09.12.07.12.27-.08.26-.05.4 0 .27.11.27-.18.4-.25.24-.11.35.1.53.12.13.01.15-.13.27-.12.07 0 .08.1.13.12.39.16.65-.28.86 0 .01-.51.04-.02.13 0a.9.9 0 0 1 .07-.37c.07.01.1-.17.13 0 .02.25-.09.25-.13.37.33.22.45-.12.79.12.01-.31.1-.48.26-.5.01.23.22.09.2.37.28-.26.41.35.8.25 0 .21.05.32.13.37.06-.21.21-.27.4-.25.01-.18-.02-.46.07-.49.19.03.34-.03.4-.25-.09-.01-.15-.03-.13-.25.01-.16.12-.05.13-.12.03-.15-.06-.28-.07-.37-.02-.2.03-.43 0-.62-.03-.2-.14-.21-.2-.37-.03-.08.02-.27 0-.37-.02-.07-.15-.1-.13-.25-.05-.03-.13 0-.13-.12-.2-.09-.24.12-.4.12-.1-.12-.15-.21-.27-.25-.12-.04-.2.13-.27.13.02 0-.04-.11-.07-.13-.33-.15-.45-.04-.66 0-.09.02-.14-.13-.2-.12-.01 0-.1.24-.2.12-.12.14-.14.48-.27.62-.09.03-.09-.21-.13-.24-.09-.07-.25.08-.33 0-.11-.11-.01-.53-.2-.37-.25-.13-.21.26-.33.37-.06-.51-.32-.1-.46-.12-.11-.02-.18-.25-.27-.25-.05.01-.06.12-.07.13-.1.03-.14-.12-.2-.13-.07 0-.08.13-.13.13-.01 0-.11-.24-.13-.25-.21-.06-.18.33-.33.37.1-.44-.23-.07-.2-.37-.22.05-.39.22-.6.25-.07 0-.05-.12-.07-.13-.07-.03-.08.13-.13.13-.07-.02-.08-.1-.13-.13-.25-.11-.4.08-.53.13-.06.02-.13-.02-.2 0-.05.01-.06.12-.07.12-.05.02-.07-.12-.06-.12-.07 0-.08.12-.13.12.02 0-.04-.11-.07-.12-.21-.1-.33.14-.46.12-.05 0-.06-.12-.07-.12-.06-.02-.13.12-.13.12-.17-.02-.25-.13-.4-.12 0 .15-.08.06-.13.12-.07.07-.08.16-.13.25-.02-.22-.11-.28-.27-.25-.1.01-.05.31-.2.25-.15-.09-.34-.11-.47-.25-.06.24-.24.12-.33.12-.15.01-.31-.04-.47 0-.11.03-.4.25-.46.24-.06 0-.17-.64-.2-.12.04 0 .08.1 0 .12-.15-.17-.18-.32-.27-.12-.04.08-.08-.13-.07-.12-.22-.07-.27.06-.4.12-.3.13-.28.04-.53 0-.53-.07-1.23-.04-1.52.12-.13.08-.16.11-.26.25-.27-.6-.67.32-.93-.25-.18.29-.5.35-.6.12-.03-.07-.09.12-.07.12-.15-.03-.21-.12-.33-.12-.23 0-.16.33-.26.12-.13-.23-.16-.05-.27 0-.15.07-.39-.15-.4.12.1 0 .05.37 0 .13 0-.13-.05-.15-.07-.25-.19-.02-.4.22-.6.25-.08.01-.13-.12-.26-.13-.12 0-.15.13-.26.13-.09 0-.12-.13-.26-.13-.1.01-.24.12-.33.13-.23.02-.32-.17-.4 0-.01.02-.11 0-.13 0-.33.07-.63.08-.79.12-.16.05-.31-.03-.47 0-.07.01-.07.1-.13.13-.3.13-.45-.11-.66-.13-.2-.01-.41.3-.59 0 0 .21-.18.07-.2.25-.13 0-.09.34-.27.25.18-.34-.1-.12-.13-.37-.15.03-.26-.04-.4 0-.13.04-.23.23-.33.24.01 0-.09-.11-.13-.12-.31-.07-.45.19-.53 0-.01-.02-.11 0-.13 0-.36-.1-.75.08-.93.12-.09.02-.18-.02-.27 0-.12.03-.15.12-.26.12-.08 0-.14-.11-.26-.12-.12-.01-.26 0-.4 0-.07.01-.08.12-.13.12.02 0-.04-.11-.07-.12-.19-.09-.2.09-.33.12-.52.15-1.23.02-1.59.13-.27.08-.27.05-.4 0-.53-.24-1.07.35-1.26-.13-.13.29-.48.18-.6.5-.03-.15-.07-.28-.13-.37-.14.35-.32-.02-.46 0-.11.01-.22.22-.33.25-.07.02-.08-.12-.13-.12.02 0-.04.11-.06.12-.16.07-.28-.03-.4 0-.08.02-.16.12-.2.12-.09 0-.12-.15-.26-.12-.09.01-.09.13-.2.12-.08-.01-.1-.1-.2-.12a.757.757 0 0 0-.26 0c-.18.02-.42.23-.53.25 0 0-.02-.12-.07-.12-.03 0-.09.12-.07.12-.1-.01-.12-.14-.27-.12-.09.01-.13.09-.26.12-.15.03-.28-.04-.4 0-.16.06-.17.25-.27.25 0 0-.06-.24-.07-.25-.04-.03-.15.11-.13.12-.23-.15-.15-.39-.27-.12-.04.09-.36 0-.4 0-.32.01-.51.1-.66.12-.44.05-.72-.06-.93.24-.25-.42-.53-.17-.8-.12-.3.05-.7-.04-.93 0-.23.04-.21.12-.26 0-.01-.03-.17 0-.2 0-.04 0-.08-.12-.06-.12-.12 0-.15.1-.27.12-.32.07-.51-.08-.73-.12-.02.1-.06.14-.13.12-.01.15.01.36-.07.37v-.37c-.28.11-.39.11-.66 0-.01.15.01.36-.07.37.06-.48-.35-.09-.4-.37-.19.5-.53.01-.8.25-.11 0-.04.35-.13.37-.19-.02-.28-.23-.46-.25-.16.01-.26-.02-.4 0-.23.03-.28.12-.33 0-.04-.1-.21-.04-.26-.12-.01.2-.16.09-.26.12-.12.04-.15.11-.26.12-.13.01-.15-.14-.27-.12-.09.01-.09.13-.2.12-.09-.01-.13-.1-.26-.12-.11-.02-.22.02-.33 0-.25-.04-.26-.16-.33 0-.01.03-.11-.02-.13 0-.47.33-.96-.25-1.26.25-.13-.24-.33-.13-.46-.13-.08 0-.1.04-.13.13-.03.08-.09-.12-.07-.13-.3.07-.35.04-.6 0-.11-.01-.22.02-.33 0-.24-.04-.21-.11-.26 0-.15.27-.24.04-.33 0-.23-.09-.48.12-.53.13-.09.01-.12-.16-.26-.13-.09.02-.09.13-.2.13-.08 0-.13-.1-.27-.13-.11-.01-.22.02-.33 0-.25-.04-.27-.05-.4 0-.16.07-.28-.05-.4 0-.03.21.1.32 0 .37-.14-.23-.35-.33-.6-.37-.13-.04-.13.17-.2.25-.2-.58-.6-.03-.93-.37-.01.19.02.46-.07.5-.08.03-.1-.08-.13-.13-.06-.09-.02-.08-.13-.12-.22-.09-.15.26-.27 0-.01-.03-.17 0-.2 0-.04 0-.08-.13-.07-.13-.12-.01-.25.09-.4.13-.39.08-.46.03-.73 0-.55-.08-1.34-.12-1.86 0-.09.02-.09.11-.2.12-.25.03-.55-.05-.79 0-.12.03-.15.13-.26.13-.06 0-.08-.13-.13-.13s-.09.14-.13.13c-.09-.04-.11-.19-.2-.25-.02.25-.29.03-.33.25-.18-.29-.4-.27-.6-.25-.05 0-.06.12-.07.12-.13.04-.27-.06-.4 0-.17.09-.18.27-.27.13-.11-.21-.41.13-.46.12-.09 0-.09-.12-.2-.12-.09 0-.13.11-.26.12-.04.01-.1.02-.13 0-.18-.08-.06 0-.27 0-.21.01-.46-.05-.59 0-.09.04-.18.35-.27.25-.11-.11-.21-.18-.27-.25 0 .01-.1-.13-.07-.12-.07-.03-.11.11-.13.12-.1.04-.14-.12-.2-.12-.38-.03-.51.03-.73.12-.26.11-.35.1-.53 0-.25-.13-.51-.09-.8-.12-.2-.02-.18-.2-.26 0-.03.08-.08-.12-.07-.13-.13.01-.21.12-.33.13-.1 0-.22-.13-.33-.13-.07 0-.08.1-.13.13-.27.12-.43-.1-.6-.13-.11-.01-.1.22-.2 0-.01-.02-.11.01-.13 0-.29-.06-.45.21-.66.25-.06.01-.08-.1-.13-.12-.21-.08-.28.06-.4.12-.23.13-.27.06-.4 0-.06-.02-.13.02-.2 0-.25-.07-.4-.15-.53 0-.06.08-.02.09-.13.13-.53.15-1.21-.52-1.72.12-.08-.43-.5-.15-.6-.37-.03-.07-.16.28-.2.25-.04-.17-.14-.23-.26-.25-.09.32-.14.11-.2.25-.04.1-.21.04-.26.12-.02-.5-.24-.09-.4-.12-.09-.02-.09-.13-.2-.13.01 0-.04.11-.07.13-.22.1-.25-.13-.4-.13-.08.01-.13.11-.26.13-.12.02-.32-.04-.46 0-.22.06-.25.06-.4 0-.25-.1-.36.12-.53.12-.12 0-.26-.11-.4-.12-.11-.01-.21.13-.33.12-.07 0-.08-.1-.13-.12-.16-.07-.35-.03-.46 0-.25.06-.22.04-.46 0-.27-.05-.61-.05-.8 0-.08.02-.15.12-.2.12-.09 0-.12-.15-.26-.12-.08.02-.11.08-.2.12-.04.01-.09-.02-.13 0-.03.01-.07.12-.07.12-.09.03-.15-.14-.2-.12-.04.01-.08.36-.2.25-.33-.3-1.03-.2-1.52-.25-.04-.01-.08-.12-.07-.12-.1 0-.23.13-.33.12-.14-.02-.21-.19-.33-.12-.01.14-.11.13-.2.12-.09 0-.06.22-.13.25-.16-.16-.4-.16-.53-.37-.15.3-.35.01-.53 0-.16-.01-.3.11-.46.12-.07.01-.04-.11-.06-.12-.06-.04-.13.12-.13.12-.15-.02-.2-.13-.33-.12-.12 0-.15.14-.27.12-.08-.01-.09-.14-.2-.12-.07.01-.08.1-.13.12-.23.09-.32-.09-.46-.12-.09-.02-.18.02-.26 0-.12-.03-.15-.12-.27-.13-.1 0-.23.11-.33.13-.26.01-.63 0-.78-.02zm63.23-1.85c.05.43-.23.44-.33.25.01-.28.16-.27.33-.25z"/><path d="M294.76 117.42v.25c.12.41.32-.38 0-.25zM310.79 116.92c.07 0 .08.1.13.12.2-.24-.13-.39-.13-.12zM313.91 116.67h-.2c-.01.22.07.29.2.25v-.25zM319.67 116.55c-.1.01-.23-.01-.2.25h.13c.01-.13.06-.15.07-.25zM289.72 116.06c-.1.01-.23-.01-.2.25h.13c0-.13.06-.15.07-.25zM289.52 115.56c-.07 0-.08-.1-.13-.13.01.2-.01.43.13.37v-.24zM289.06 115.68c-.23-.37-.21.46 0 0zM304.37 115.32h-.2c-.01.22.07.29.2.25v-.25zM308.41 115.07h-.13c-.1.31.22.36.2.12-.05-.01-.09-.01-.07-.12zM311.06 115.07h.2c.05-.02.13 0 .13-.12-.1.06-.34-.15-.33.12zM310.07 114.82h-.2c-.01.23.07.29.2.25v-.25zM321.93 114.33c0 .07-.01.14-.07.12.01.15.02.29.13.25-.01-.15.01-.35-.06-.37zM343.53 114.2c-.11.01-.23-.02-.2.25h.13c.01-.12.06-.15.07-.25zM320.4 114.2c-.07 0-.08-.1-.13-.12.01.19-.01.43.13.37v-.25zM336.44 113.34c-.11-.01-.17.1-.2.25.11-.02.23.01.2-.25zM337.97 113.08c-.1.02-.23-.01-.2.25h.13c0-.12.06-.14.07-.25zM347.78 112.72c-.19-.18-.19.55 0 .37v-.37zM346.58 112.84c.08.01.09.16.2.12.1-.3-.23-.36-.2-.12zM345.26 112.96c.05.08.12-.1.13-.12.22-.42-.29-.11-.13.12zM344.2 112.59h-.2c-.01.22.07.29.2.25v-.25zM347.97 112.1c-.01.18-.11.21-.13.37.14.11.3-.32.13-.37z"/></g></svg>
